<svg id="svg" version="1.1" xmlns="http://www.w3.org/2000/svg" xmlns:xlink="http://www.w3.org/1999/xlink" width="400" height="414.4329896907216" viewBox="0, 0, 400,414.4329896907216"><g id="svgg"><path id="path0" d="M310.584 22.100 C 310.479 22.375,310.440 39.520,310.497 60.200 L 310.600 97.800 349.285 97.902 C 387.523 98.003,387.975 97.995,388.395 97.210 C 389.142 95.813,388.757 22.470,388.000 21.991 C 387.016 21.370,310.822 21.476,310.584 22.100 M205.449 41.018 C 205.312 41.374,205.200 42.281,205.200 43.033 C 205.200 44.224,205.072 44.400,204.200 44.400 C 203.408 44.400,203.200 44.602,203.200 45.372 C 203.200 46.076,202.951 46.380,202.300 46.472 C 201.532 46.581,201.382 46.879,201.278 48.500 C 201.168 50.221,201.063 50.400,200.168 50.400 C 199.394 50.400,199.129 50.656,198.944 51.578 C 198.784 52.381,198.437 52.795,197.854 52.878 C 197.335 52.952,196.952 53.337,196.878 53.859 C 196.810 54.332,196.419 54.806,196.009 54.914 C 195.475 55.053,195.184 55.633,194.986 56.954 C 194.746 58.556,194.583 58.800,193.755 58.800 C 193.010 58.800,192.800 59.014,192.800 59.772 C 192.800 60.476,192.551 60.780,191.900 60.872 C 191.134 60.981,190.982 61.279,190.879 62.875 C 190.777 64.456,190.621 64.769,189.879 64.875 C 189.257 64.963,188.963 65.321,188.873 66.100 C 188.774 66.964,188.538 67.200,187.773 67.200 C 187.020 67.200,186.800 67.411,186.800 68.136 C 186.800 68.744,186.452 69.230,185.807 69.524 C 185.077 69.857,184.746 70.399,184.559 71.567 C 184.364 72.785,184.105 73.185,183.452 73.278 C 182.954 73.350,182.552 73.737,182.484 74.212 C 182.420 74.659,181.970 75.199,181.484 75.412 C 180.812 75.707,180.571 76.198,180.479 77.462 C 180.378 78.843,180.192 79.165,179.379 79.370 C 178.669 79.548,178.400 79.888,178.400 80.608 C 178.400 81.399,178.198 81.600,177.400 81.600 C 176.565 81.600,176.400 81.790,176.400 82.753 C 176.400 83.565,176.166 83.968,175.611 84.113 C 175.051 84.259,174.746 84.795,174.560 85.960 C 174.343 87.320,174.143 87.600,173.392 87.600 C 172.767 87.600,172.411 87.901,172.242 88.573 C 172.108 89.109,171.658 89.655,171.242 89.787 C 170.438 90.042,170.014 91.107,170.005 92.900 C 170.001 93.805,169.823 94.000,169.000 94.000 C 168.200 94.000,168.000 94.200,168.000 95.000 C 168.000 95.800,167.800 96.000,167.000 96.000 C 166.173 96.000,166.000 96.193,166.000 97.111 C 166.000 97.727,165.644 98.527,165.200 98.907 C 164.142 99.813,164.498 102.800,165.664 102.800 C 165.849 102.800,166.000 103.070,166.000 103.400 C 166.000 103.773,166.378 104.000,167.000 104.000 C 167.800 104.000,168.000 104.200,168.000 105.000 C 168.000 105.800,168.200 106.000,169.000 106.000 C 169.742 106.000,170.000 106.212,170.000 106.820 C 170.000 107.380,170.445 107.827,171.400 108.226 C 172.170 108.548,172.800 108.959,172.800 109.141 C 172.800 109.580,174.636 110.400,175.619 110.400 C 176.185 110.400,176.400 110.675,176.400 111.400 C 176.400 112.192,176.602 112.400,177.372 112.400 C 178.076 112.400,178.380 112.649,178.472 113.300 C 178.581 114.068,178.879 114.218,180.500 114.322 C 182.215 114.432,182.400 114.539,182.400 115.422 C 182.400 116.187,182.609 116.400,183.357 116.400 C 184.043 116.400,184.384 116.682,184.564 117.400 C 184.745 118.121,185.084 118.400,185.781 118.400 C 186.368 118.400,186.838 118.689,186.981 119.139 C 187.236 119.943,188.789 120.800,189.991 120.800 C 190.468 120.800,190.791 121.130,190.872 121.700 C 190.954 122.278,191.322 122.646,191.900 122.728 C 192.458 122.807,192.800 123.133,192.800 123.585 C 192.800 124.445,193.562 124.800,195.405 124.800 C 196.489 124.800,196.769 124.971,196.872 125.700 C 196.954 126.278,197.322 126.646,197.899 126.728 C 198.460 126.807,198.890 127.221,199.043 127.828 C 199.213 128.508,199.565 128.800,200.216 128.800 C 200.874 128.800,201.182 129.062,201.272 129.700 C 201.381 130.468,201.679 130.618,203.300 130.722 C 205.015 130.832,205.200 130.939,205.200 131.822 C 205.200 132.599,205.406 132.800,206.200 132.800 C 206.991 132.800,207.200 133.002,207.200 133.768 C 207.200 134.522,207.470 134.796,208.418 135.004 C 209.088 135.151,210.104 135.705,210.676 136.236 C 211.249 136.766,212.141 137.200,212.658 137.200 C 213.396 137.200,213.600 137.417,213.600 138.200 C 213.600 138.992,213.802 139.200,214.572 139.200 C 215.276 139.200,215.580 139.449,215.672 140.100 C 215.781 140.868,216.079 141.018,217.700 141.122 C 219.415 141.232,219.600 141.339,219.600 142.222 C 219.600 142.991,219.808 143.200,220.572 143.200 C 221.276 143.200,221.580 143.449,221.672 144.100 C 221.791 144.940,222.022 145.008,225.139 145.117 C 228.973 145.251,229.496 144.988,229.855 142.748 C 230.061 141.455,230.259 141.200,231.051 141.200 C 231.785 141.200,232.000 140.983,232.000 140.243 C 232.000 139.557,232.282 139.216,233.000 139.036 C 233.881 138.815,234.000 138.571,234.000 136.992 C 234.000 135.347,234.082 135.200,235.000 135.200 C 235.844 135.200,236.000 135.013,236.000 134.000 C 236.000 132.987,236.156 132.800,237.000 132.800 C 237.782 132.800,238.000 132.596,238.000 131.864 C 238.000 131.256,238.348 130.770,238.993 130.476 C 239.723 130.143,240.054 129.601,240.241 128.433 C 240.436 127.215,240.695 126.815,241.348 126.722 C 241.846 126.650,242.248 126.263,242.316 125.788 C 242.380 125.341,242.830 124.801,243.316 124.588 C 243.990 124.292,244.229 123.802,244.322 122.525 C 244.422 121.151,244.601 120.827,245.322 120.725 C 245.943 120.637,246.237 120.278,246.327 119.500 C 246.426 118.636,246.662 118.400,247.427 118.400 C 248.171 118.400,248.400 118.187,248.400 117.495 C 248.400 116.940,248.748 116.437,249.300 116.195 C 249.995 115.890,250.228 115.413,250.323 114.100 C 250.432 112.598,250.560 112.400,251.423 112.400 C 252.187 112.400,252.400 112.191,252.400 111.443 C 252.400 110.769,252.681 110.416,253.352 110.248 C 254.336 110.001,254.785 109.021,254.795 107.100 C 254.799 106.195,254.977 106.000,255.800 106.000 C 256.592 106.000,256.800 105.798,256.800 105.028 C 256.800 104.324,257.049 104.020,257.700 103.928 C 258.272 103.847,258.646 103.479,258.725 102.919 C 258.794 102.434,259.180 101.933,259.582 101.806 C 260.334 101.567,260.785 100.486,260.795 98.900 C 260.799 98.208,261.031 98.000,261.800 98.000 C 262.598 98.000,262.800 97.799,262.800 97.008 C 262.800 96.283,263.069 95.948,263.800 95.764 C 264.696 95.539,264.800 95.310,264.800 93.557 C 264.800 91.649,264.830 91.600,266.000 91.600 C 267.004 91.600,267.200 91.441,267.200 90.628 C 267.200 89.924,267.449 89.620,268.100 89.528 C 268.734 89.438,269.036 89.087,269.123 88.341 C 269.199 87.683,269.547 87.202,270.043 87.073 C 271.301 86.744,271.008 81.858,269.719 81.675 C 269.234 81.606,268.726 81.196,268.589 80.765 C 268.429 80.261,267.715 79.814,266.588 79.512 C 265.317 79.172,264.803 78.817,264.718 78.222 C 264.646 77.721,264.248 77.350,263.700 77.272 C 263.205 77.202,262.800 76.893,262.800 76.586 C 262.800 75.836,261.527 75.200,260.026 75.200 C 258.985 75.200,258.800 75.049,258.800 74.200 C 258.800 73.412,258.597 73.200,257.843 73.200 C 257.157 73.200,256.816 72.918,256.636 72.200 C 256.429 71.378,256.142 71.200,255.021 71.200 C 254.044 71.200,253.436 70.917,252.871 70.200 C 252.439 69.650,251.706 69.200,251.242 69.200 C 250.611 69.200,250.400 68.950,250.400 68.200 C 250.400 67.428,250.194 67.200,249.495 67.200 C 248.940 67.200,248.437 66.852,248.195 66.300 C 247.924 65.682,247.274 65.290,246.121 65.048 C 244.855 64.782,244.412 64.487,244.321 63.848 C 244.238 63.264,243.865 62.961,243.125 62.876 C 242.372 62.789,242.012 62.489,241.925 61.876 C 241.819 61.136,241.505 60.981,239.900 60.878 C 238.185 60.768,238.000 60.661,238.000 59.778 C 238.000 59.001,237.794 58.800,237.000 58.800 C 236.200 58.800,236.000 58.600,236.000 57.800 C 236.000 56.986,235.804 56.800,234.946 56.800 C 234.335 56.800,233.502 56.379,232.965 55.800 C 232.444 55.238,231.592 54.800,231.019 54.800 C 230.213 54.800,230.000 54.601,230.000 53.850 C 230.000 53.114,229.729 52.846,228.800 52.660 C 227.964 52.493,227.600 52.186,227.600 51.648 C 227.600 51.024,227.215 50.822,225.600 50.600 C 223.830 50.357,223.600 50.214,223.600 49.362 C 223.600 48.610,223.388 48.400,222.628 48.400 C 221.924 48.400,221.620 48.151,221.528 47.500 C 221.419 46.732,221.121 46.582,219.500 46.478 C 217.785 46.368,217.600 46.261,217.600 45.378 C 217.600 44.613,217.391 44.400,216.643 44.400 C 215.957 44.400,215.616 44.118,215.436 43.400 C 215.261 42.705,214.911 42.400,214.287 42.400 C 213.740 42.400,213.236 42.049,212.995 41.500 C 212.471 40.305,205.883 39.885,205.449 41.018 M18.851 131.953 L 17.596 133.125 17.698 170.062 L 17.800 207.000 18.675 207.125 C 19.221 207.202,19.598 207.579,19.675 208.125 L 19.800 209.000 56.442 209.102 L 93.084 209.204 94.552 207.820 L 96.020 206.435 95.910 169.051 C 95.849 148.489,95.650 131.516,95.467 131.333 C 95.284 131.150,78.252 130.951,57.620 130.890 L 20.106 130.780 18.851 131.953 M288.000 161.000 C 287.733 161.702,287.319 162.000,286.610 162.000 C 285.799 162.000,285.600 162.197,285.600 163.000 C 285.600 163.800,285.400 164.000,284.600 164.000 C 283.806 164.000,283.600 164.201,283.600 164.978 C 283.600 165.861,283.415 165.968,281.700 166.078 C 280.095 166.181,279.781 166.336,279.675 167.076 C 279.588 167.689,279.228 167.989,278.475 168.076 C 277.723 168.163,277.363 168.463,277.275 169.075 C 277.198 169.621,276.821 169.998,276.275 170.075 C 275.745 170.151,275.353 170.529,275.280 171.037 C 275.188 171.685,274.739 171.955,273.280 172.237 C 271.770 172.529,271.375 172.777,271.272 173.500 C 271.180 174.151,270.876 174.400,270.172 174.400 C 269.402 174.400,269.200 174.608,269.200 175.400 C 269.200 176.200,269.000 176.400,268.200 176.400 C 267.406 176.400,267.200 176.601,267.200 177.378 C 267.200 178.261,267.015 178.368,265.300 178.478 C 263.695 178.581,263.381 178.736,263.275 179.476 C 263.188 180.089,262.828 180.389,262.075 180.476 C 261.313 180.564,260.963 180.862,260.872 181.500 C 260.780 182.151,260.476 182.400,259.772 182.400 C 259.020 182.400,258.800 182.612,258.800 183.333 C 258.800 184.128,258.519 184.320,256.900 184.633 C 255.370 184.928,254.975 185.175,254.872 185.900 C 254.780 186.551,254.476 186.800,253.772 186.800 C 253.002 186.800,252.800 187.008,252.800 187.800 C 252.800 188.644,252.613 188.800,251.600 188.800 C 250.587 188.800,250.400 188.956,250.400 189.800 C 250.400 190.660,250.218 190.801,249.100 190.806 C 247.607 190.813,247.048 191.113,246.683 192.100 C 246.531 192.514,246.012 192.800,245.413 192.800 C 244.599 192.800,244.400 192.997,244.400 193.800 C 244.400 194.600,244.200 194.800,243.400 194.800 C 242.613 194.800,242.400 195.003,242.400 195.755 C 242.400 196.578,242.155 196.746,240.620 196.976 C 239.385 197.161,238.768 197.471,238.604 197.988 C 238.474 198.398,237.835 198.919,237.184 199.146 C 236.391 199.422,236.000 199.829,236.000 200.379 C 236.000 200.988,235.742 201.200,235.000 201.200 C 234.200 201.200,234.000 201.400,234.000 202.200 C 234.000 203.000,233.800 203.200,233.000 203.200 C 232.200 203.200,232.000 203.400,232.000 204.200 C 232.000 205.000,231.800 205.200,231.000 205.200 C 230.067 205.200,230.000 205.333,230.000 207.200 C 230.000 209.067,230.067 209.200,231.000 209.200 C 231.800 209.200,232.000 209.400,232.000 210.200 C 232.000 210.986,232.203 211.200,232.949 211.200 C 233.745 211.200,233.939 211.455,234.152 212.787 C 234.307 213.758,234.704 214.535,235.175 214.786 C 235.598 215.013,236.002 215.604,236.072 216.099 C 236.142 216.595,236.598 217.175,237.084 217.388 C 237.570 217.601,238.020 218.141,238.084 218.588 C 238.163 219.140,238.553 219.441,239.300 219.527 C 240.170 219.627,240.400 219.860,240.400 220.645 C 240.400 221.190,240.850 222.086,241.400 222.636 C 241.950 223.186,242.400 224.078,242.400 224.618 C 242.400 225.392,242.607 225.600,243.373 225.600 C 244.138 225.600,244.374 225.836,244.473 226.700 C 244.564 227.488,244.856 227.836,245.500 227.928 C 246.121 228.016,246.400 228.328,246.400 228.933 C 246.400 229.458,246.760 229.969,247.298 230.205 C 247.791 230.422,248.248 230.960,248.313 231.400 C 248.629 233.543,248.852 234.000,249.580 234.000 C 250.068 234.000,250.391 234.325,250.472 234.900 C 250.554 235.478,250.922 235.846,251.500 235.928 C 251.995 235.998,252.400 236.312,252.400 236.625 C 252.400 236.938,252.940 237.675,253.600 238.263 C 254.470 239.038,254.800 239.691,254.800 240.638 C 254.800 241.680,254.979 241.970,255.684 242.072 C 256.242 242.153,256.653 242.568,256.800 243.200 C 256.947 243.832,257.358 244.247,257.916 244.328 C 258.550 244.420,258.800 244.730,258.800 245.428 C 258.800 246.198,259.008 246.400,259.800 246.400 C 260.672 246.400,260.800 246.576,260.800 247.767 C 260.800 249.637,261.152 250.400,262.015 250.400 C 262.467 250.400,262.793 250.742,262.872 251.300 C 262.952 251.862,263.321 252.246,263.854 252.322 C 264.437 252.405,264.784 252.819,264.944 253.622 C 265.131 254.553,265.392 254.800,266.190 254.800 C 267.120 254.800,267.200 254.942,267.200 256.592 C 267.200 258.171,267.319 258.415,268.200 258.636 C 268.918 258.816,269.200 259.157,269.200 259.843 C 269.200 260.597,269.412 260.800,270.200 260.800 C 271.000 260.800,271.200 261.000,271.200 261.800 C 271.200 262.600,271.400 262.800,272.200 262.800 C 272.993 262.800,273.200 263.002,273.200 263.774 C 273.200 266.810,277.826 268.364,278.987 265.718 C 279.211 265.208,279.801 264.786,280.387 264.718 C 281.087 264.636,281.439 264.322,281.528 263.700 C 281.620 263.049,281.924 262.800,282.628 262.800 C 283.392 262.800,283.600 262.591,283.600 261.823 C 283.600 260.960,283.798 260.832,285.300 260.723 C 286.613 260.628,287.090 260.395,287.395 259.700 C 287.637 259.148,288.140 258.800,288.695 258.800 C 289.394 258.800,289.600 258.572,289.600 257.800 C 289.600 257.000,289.800 256.800,290.600 256.800 C 291.386 256.800,291.600 256.597,291.600 255.852 C 291.600 255.015,291.837 254.872,293.600 254.638 C 295.387 254.401,295.600 254.268,295.600 253.386 C 295.600 252.557,295.791 252.400,296.800 252.400 C 297.813 252.400,298.000 252.244,298.000 251.400 C 298.000 250.600,298.200 250.400,299.000 250.400 C 299.794 250.400,300.000 250.198,300.000 249.423 C 300.000 248.560,300.198 248.432,301.700 248.323 C 303.013 248.228,303.490 247.995,303.795 247.300 C 304.037 246.748,304.540 246.400,305.095 246.400 C 305.787 246.400,306.000 246.171,306.000 245.427 C 306.000 244.662,306.236 244.426,307.100 244.327 C 307.867 244.238,308.237 243.942,308.322 243.348 C 308.415 242.695,308.815 242.436,310.033 242.241 C 311.201 242.054,311.743 241.723,312.076 240.993 C 312.370 240.348,312.856 240.000,313.464 240.000 C 314.196 240.000,314.400 239.782,314.400 239.000 C 314.400 238.200,314.600 238.000,315.400 238.000 C 316.194 238.000,316.400 237.798,316.400 237.023 C 316.400 236.160,316.598 236.032,318.100 235.923 C 319.413 235.828,319.890 235.595,320.195 234.900 C 320.436 234.351,320.940 234.000,321.487 234.000 C 322.111 234.000,322.461 233.695,322.636 233.000 C 322.816 232.282,323.157 232.000,323.843 232.000 C 324.583 232.000,324.800 231.785,324.800 231.051 C 324.800 230.255,325.055 230.061,326.387 229.848 C 327.341 229.696,328.135 229.295,328.377 228.843 C 328.598 228.430,329.234 227.978,329.789 227.838 C 330.530 227.652,330.800 227.320,330.800 226.592 C 330.800 225.801,331.002 225.600,331.800 225.600 C 332.600 225.600,332.800 225.400,332.800 224.600 C 332.800 223.756,332.987 223.600,334.000 223.600 C 335.043 223.600,335.200 223.456,335.200 222.496 C 335.200 221.826,335.514 221.196,336.000 220.893 C 337.001 220.268,337.032 219.011,336.065 218.323 C 335.660 218.035,335.207 217.305,335.057 216.700 C 334.851 215.869,334.542 215.600,333.792 215.600 C 333.008 215.600,332.800 215.396,332.800 214.628 C 332.800 213.926,332.551 213.620,331.905 213.528 C 331.227 213.431,330.956 213.058,330.782 211.986 C 330.503 210.256,330.124 209.600,329.403 209.600 C 329.101 209.600,328.796 209.105,328.727 208.500 C 328.636 207.712,328.344 207.364,327.700 207.272 C 327.049 207.180,326.800 206.876,326.800 206.172 C 326.800 205.402,326.592 205.200,325.800 205.200 C 325.075 205.200,324.800 204.985,324.800 204.419 C 324.800 203.289,323.953 201.600,323.386 201.600 C 323.119 201.600,322.792 201.060,322.660 200.400 C 322.515 199.675,322.170 199.200,321.789 199.200 C 321.442 199.200,320.970 198.660,320.740 198.000 C 320.432 197.116,320.069 196.800,319.361 196.800 C 318.598 196.800,318.400 196.590,318.400 195.781 C 318.400 195.208,317.962 194.356,317.400 193.835 C 316.821 193.298,316.400 192.465,316.400 191.854 C 316.400 190.996,316.214 190.800,315.400 190.800 C 314.600 190.800,314.400 190.600,314.400 189.800 C 314.400 189.000,314.200 188.800,313.400 188.800 C 312.613 188.800,312.400 188.597,312.400 187.846 C 312.400 187.277,312.007 186.635,311.426 186.254 C 310.790 185.837,310.408 185.161,310.326 184.308 C 310.240 183.419,309.918 182.876,309.322 182.615 C 308.839 182.403,308.341 181.818,308.214 181.315 C 308.052 180.669,307.693 180.400,306.992 180.400 C 306.250 180.400,306.000 180.188,306.000 179.558 C 306.000 179.094,305.550 178.361,305.000 177.929 C 304.281 177.363,304.000 176.757,304.000 175.771 C 304.000 174.575,303.872 174.400,303.000 174.400 C 302.202 174.400,302.000 174.199,302.000 173.408 C 302.000 172.683,301.731 172.348,301.000 172.164 C 300.282 171.984,300.000 171.643,300.000 170.957 C 300.000 170.203,299.788 170.000,299.000 170.000 C 298.128 170.000,298.000 169.824,298.000 168.633 C 298.000 166.763,297.648 166.000,296.785 166.000 C 296.333 166.000,296.007 165.658,295.928 165.100 C 295.847 164.530,295.479 164.154,294.925 164.075 C 294.379 163.998,294.002 163.621,293.925 163.075 C 293.838 162.466,293.477 162.163,292.738 162.077 C 291.998 161.991,291.601 161.657,291.430 160.977 C 291.068 159.537,288.550 159.553,288.000 161.000 M20.300 222.032 C 19.915 222.256,19.600 222.681,19.600 222.977 C 19.600 223.272,19.147 223.627,18.594 223.766 L 17.588 224.018 17.694 261.389 C 17.779 291.406,17.902 298.862,18.320 299.280 C 18.738 299.698,26.341 299.821,57.028 299.906 L 95.215 300.012 95.610 298.974 C 95.861 298.313,95.967 284.519,95.902 260.869 L 95.800 223.800 94.700 223.673 C 94.085 223.603,93.600 223.300,93.600 222.988 C 93.600 222.680,93.252 222.242,92.826 222.014 C 91.763 221.445,21.278 221.463,20.300 222.032 M112.078 221.885 C 110.425 222.201,110.400 222.808,110.400 262.026 L 110.400 300.000 148.400 300.000 L 186.400 300.000 186.400 261.800 L 186.400 223.600 185.400 223.600 C 184.788 223.600,184.400 223.372,184.400 223.014 C 184.400 222.692,184.052 222.242,183.626 222.014 C 182.870 221.609,114.170 221.485,112.078 221.885 M18.080 314.880 C 17.714 315.246,17.600 324.189,17.600 352.690 L 17.600 390.020 18.626 390.410 C 20.898 391.274,95.116 390.904,95.586 390.026 C 96.033 389.191,96.190 316.949,95.748 315.300 L 95.507 314.400 57.033 314.400 C 27.643 314.400,18.447 314.513,18.080 314.880 M110.400 352.600 L 110.400 390.800 148.400 390.800 L 186.400 390.800 186.400 352.600 L 186.400 314.400 148.400 314.400 L 110.400 314.400 110.400 352.600 M201.298 352.500 L 201.400 390.600 239.300 390.702 L 277.200 390.804 277.200 389.697 C 277.200 388.932,277.479 388.468,278.100 388.195 L 279.000 387.800 279.000 352.600 L 279.000 317.400 278.100 317.005 C 277.479 316.733,277.200 316.268,277.200 315.505 L 277.200 314.400 239.198 314.400 L 201.196 314.400 201.298 352.500 " stroke="none" fill="#0484f4" fill-rule="evenodd"></path><path id="path1" d="" stroke="none" fill="#0884f4" fill-rule="evenodd"></path><path id="path2" d="" stroke="none" fill="#0884f4" fill-rule="evenodd"></path><path id="path3" d="" stroke="none" fill="#0884f4" fill-rule="evenodd"></path><path id="path4" d="" stroke="none" fill="#0884f4" fill-rule="evenodd"></path></g></svg>