<svg id="Capa_1" enable-background="new 0 0 512 512" height="512" viewBox="0 0 512 512" width="512" xmlns="http://www.w3.org/2000/svg"><g><g><path clip-rule="evenodd" d="m61.982 291.874v80.365l194.712 21.204 128.41-21.204v-49.183c0-7.597 6.208-13.805 13.805-13.805h25.143v-136.55c0-7.512-6.151-13.663-13.663-13.663h-79.2z" fill="#9fd4fe" fill-rule="evenodd"/></g><g><path clip-rule="evenodd" d="m296.096 410.167-58.167-11.424-47.991 11.424-13.351 44.647 65.963 9.043 66.869-9.043z" fill="#beb9dd" fill-rule="evenodd"/></g><g><path clip-rule="evenodd" d="m385.104 372.238h-323.122v24.265c0 7.512 6.151 13.663 13.663 13.663h114.293 106.158 89.008z" fill="#dddaec" fill-rule="evenodd"/></g><g><path clip-rule="evenodd" d="m309.419 454.814h-132.832-20.58c-9.184 0-16.696 7.512-16.696 16.725v11.707c0 2.75 2.239 4.989 4.989 4.989h197.434c2.721 0 4.989-2.239 4.989-4.989v-11.707c0-9.213-7.54-16.725-16.724-16.725z" fill="#dddaec" fill-rule="evenodd"/></g><g><path clip-rule="evenodd" d="m302.531 291.874c-5.556 29.368-16.243 56.61-30.926 80.365h113.5v-49.183c0-7.597 6.208-13.805 13.805-13.805h25.143v-136.55c0-7.512-6.151-13.663-13.663-13.663h-79.2v119.626c0 7.257-5.924 13.21-13.181 13.21z" fill="#85beef" fill-rule="evenodd"/></g><g><path clip-rule="evenodd" d="m385.104 372.238h-113.5c-8.589 13.919-18.567 26.618-29.679 37.929h54.17 89.008v-37.929z" fill="#beb9dd" fill-rule="evenodd"/></g><g><path clip-rule="evenodd" d="m184.212 429.273h75.77c11.934 0 14.173 4.309 17.291 14.769l3.232 10.772h28.913l-13.323-44.647h-54.17-51.988z" fill="#a7a2d3" fill-rule="evenodd"/></g><g><path clip-rule="evenodd" d="m61.982 291.874h256.026c7.257 0 13.181-5.953 13.181-13.21v-119.626-65.312l-159.818-18.794-163.871 18.794v184.938c0 7.257 5.924 13.21 13.181 13.21z" fill="#eff6ff" fill-rule="evenodd"/></g><g><path clip-rule="evenodd" d="m51.21 253.236h76.451c2.806 0 5.102-2.296 5.102-5.103v-110.696c0-2.806-2.296-5.074-5.102-5.074h-76.451c-2.806 0-5.102 2.268-5.102 5.074v110.696c0 2.807 2.296 5.103 5.102 5.103z" fill="#ffd772" fill-rule="evenodd"/></g><g><path clip-rule="evenodd" d="m171.371 137.437v33.478c0 2.806 2.296 5.103 5.074 5.103h111.062c2.778 0 5.074-2.296 5.074-5.103v-33.478c0-2.806-2.296-5.074-5.074-5.074h-111.062c-2.778 0-5.074 2.268-5.074 5.074z" fill="#3bc3a4" fill-rule="evenodd"/></g><g><path clip-rule="evenodd" d="m7.5 93.726h323.689v-56.78c0-7.257-5.924-13.182-13.181-13.182h-297.327c-7.257 0-13.181 5.925-13.181 13.182z" fill="#375e7d" fill-rule="evenodd"/></g><g><path clip-rule="evenodd" d="m287.507 132.363h-29.849c2.069 12.955 3.146 26.335 3.146 39.97v3.685h26.702c2.778 0 5.074-2.296 5.074-5.103v-33.478c.001-2.806-2.295-5.074-5.073-5.074z" fill="#00a887" fill-rule="evenodd"/></g><g><path clip-rule="evenodd" d="m287.507 176.018h-26.702c-.227 14.259-1.616 28.206-4.082 41.699-2.239 12.246-5.386 24.095-9.326 35.519-4.706 13.578-10.545 26.505-17.405 38.637h88.016c7.257 0 13.181-5.953 13.181-13.21v-119.625-65.312h-83.027c4.139 12.388 7.342 25.286 9.496 38.637h29.849c2.778 0 5.074 2.268 5.074 5.074v33.478c0 2.807-2.296 5.103-5.074 5.103z" fill="#d9eeff" fill-rule="evenodd"/></g><g><path clip-rule="evenodd" d="m248.162 93.726h83.027v-56.78c0-7.257-5.924-13.182-13.181-13.182h-107.632c16.186 20.241 29.084 43.939 37.786 69.962z" fill="#2b4d66" fill-rule="evenodd"/></g><g><path clip-rule="evenodd" d="m301.057 454.814c9.213 0 16.724 7.512 16.724 16.725v11.707c0 2.721-2.211 4.961-4.932 4.989h28.885c2.721 0 4.989-2.239 4.989-4.989v-11.707c0-9.213-7.54-16.725-16.724-16.725h-20.58z" fill="#beb9dd" fill-rule="evenodd"/></g><g><path clip-rule="evenodd" d="m385.104 410.167v64.235c0 7.625 6.208 13.833 13.805 13.833h91.758c7.597 0 13.833-6.208 13.833-13.833v-151.346c0-7.597-6.236-13.805-13.833-13.805h-66.614-25.143c-7.597 0-13.805 6.208-13.805 13.805v49.183 37.928z" fill="#9fd4fe" fill-rule="evenodd"/></g><g><path clip-rule="evenodd" d="m490.667 309.25h-45.751c14.967 23.585 24.009 54.37 24.009 88.018 0 35.066-9.836 67.013-25.965 90.967h47.707c7.597 0 13.833-6.208 13.833-13.833v-151.346c0-7.598-6.236-13.806-13.833-13.806z" fill="#85beef" fill-rule="evenodd"/></g><g><path clip-rule="evenodd" d="m105.126 137.437v110.696c0 2.806-2.296 5.103-5.074 5.103h27.61c2.806 0 5.102-2.296 5.102-5.103v-110.696c0-2.806-2.296-5.074-5.102-5.074h-27.61c2.777 0 5.074 2.268 5.074 5.074z" fill="#fbba58" fill-rule="evenodd"/></g><g><path d="m291.532 66.273c4.142 0 7.5-3.357 7.5-7.5v-.057c0-4.143-3.358-7.472-7.5-7.472s-7.5 3.386-7.5 7.528 3.358 7.501 7.5 7.501z"/><path d="m254.455 66.273c4.142 0 7.5-3.357 7.5-7.5v-.057c0-4.143-3.358-7.472-7.5-7.472s-7.5 3.386-7.5 7.528 3.358 7.501 7.5 7.501z"/><path d="m217.378 66.273c4.142 0 7.5-3.357 7.5-7.5v-.057c0-4.143-3.358-7.472-7.5-7.472s-7.5 3.386-7.5 7.528 3.358 7.501 7.5 7.501z"/><path d="m123.925 51.273-76.763-.057c-.002 0-.003 0-.005 0-4.14 0-7.497 3.354-7.5 7.494-.003 4.143 3.353 7.503 7.495 7.506l76.763.057h.005c4.14 0 7.497-3.354 7.5-7.494.002-4.142-3.353-7.503-7.495-7.506z"/><path d="m287.507 124.863h-111.062c-6.933 0-12.574 5.641-12.574 12.574v33.479c0 6.948 5.641 12.602 12.574 12.602h111.062c6.933 0 12.574-5.653 12.574-12.602v-33.479c0-6.933-5.641-12.574-12.574-12.574zm-2.426 43.655h-106.209v-28.654h106.209z"/><path d="m292.581 210.217h-121.209c-4.142 0-7.5 3.357-7.5 7.5s3.358 7.5 7.5 7.5h121.209c4.142 0 7.5-3.357 7.5-7.5s-3.358-7.5-7.5-7.5z"/><path d="m189.882 245.736h-18.51c-4.142 0-7.5 3.357-7.5 7.5s3.358 7.5 7.5 7.5h18.51c4.142 0 7.5-3.357 7.5-7.5s-3.358-7.5-7.5-7.5z"/><path d="m292.581 245.736h-62.05c-4.142 0-7.5 3.357-7.5 7.5s3.358 7.5 7.5 7.5h62.05c4.142 0 7.5-3.357 7.5-7.5s-3.358-7.5-7.5-7.5z"/><path d="m444.802 450.744h-.255c-4.142 0-7.5 3.357-7.5 7.5s3.358 7.5 7.5 7.5h.255c4.142 0 7.5-3.357 7.5-7.5s-3.358-7.5-7.5-7.5z"/><path d="m490.667 301.75h-59.114v-129.049c0-11.669-9.494-21.163-21.163-21.163h-71.7v-114.592c0-11.404-9.278-20.682-20.682-20.682h-297.327c-11.404.001-20.681 9.278-20.681 20.682v241.718c0 11.419 9.277 20.709 20.681 20.709h33.801v97.131c0 11.669 9.494 21.163 21.163 21.163h104.223l-8.866 29.646h-14.994c-13.342 0-24.196 10.867-24.196 24.226v11.707c0 6.887 5.603 12.489 12.489 12.489h197.434c6.887 0 12.489-5.603 12.489-12.489v-11.707c0-13.358-10.867-24.226-24.225-24.226h-14.991l-8.847-29.646h71.443v56.735c0 11.763 9.557 21.333 21.305 21.333h91.758c11.763 0 21.333-9.57 21.333-21.333v-151.346c0-11.748-9.57-21.306-21.333-21.306zm-475.667-23.086v-177.438h137.039c4.142 0 7.5-3.357 7.5-7.5s-3.358-7.5-7.5-7.5h-137.039v-49.28c0-3.133 2.548-5.682 5.681-5.682h297.327c3.133 0 5.682 2.549 5.682 5.682v49.279h-137.011c-4.142 0-7.5 3.357-7.5 7.5s3.358 7.5 7.5 7.5h137.011v177.438c0 3.147-2.549 5.709-5.682 5.709h-297.327c-3.133.001-5.681-2.56-5.681-5.708zm303.008 20.709c11.404 0 20.682-9.29 20.682-20.709v-112.126h71.7c3.398 0 6.163 2.765 6.163 6.163v129.049h-17.644c-11.748 0-21.305 9.558-21.305 21.306v41.683h-308.122v-65.365h248.526zm21.215 172.166v9.196h-192.411v-9.196c0-5.087 4.125-9.226 9.196-9.226h173.991c5.086 0 9.224 4.139 9.224 9.226zm-79.014-68.872c-4.142 0-7.5 3.357-7.5 7.5s3.358 7.5 7.5 7.5h30.298l8.847 29.646h-112.696l8.866-29.646h30.188c4.142 0 7.5-3.357 7.5-7.5s-3.358-7.5-7.5-7.5h-150.067c-3.398 0-6.163-2.765-6.163-6.163v-16.766h308.123v22.929zm236.791 71.735c0 3.492-2.841 6.333-6.333 6.333h-91.758c-3.477 0-6.305-2.841-6.305-6.333v-151.346c0-3.477 2.828-6.306 6.305-6.306h91.758c3.492 0 6.333 2.829 6.333 6.306z"/><path d="m127.661 124.863h-76.451c-6.949 0-12.603 5.641-12.603 12.574v110.696c0 6.949 5.653 12.603 12.603 12.603h76.451c6.949 0 12.602-5.653 12.602-12.603v-110.695c0-6.934-5.653-12.575-12.602-12.575zm-2.398 120.873h-71.655v-105.873h71.655z"/></g></g></svg>