<?xml version="1.0"?>
<svg width="12.581016647361093" height="3.4675078086330937" xmlns="http://www.w3.org/2000/svg" xmlns:svg="http://www.w3.org/2000/svg" version="1.1">
 <defs>
  <clipPath id="SvgjsClipPath25673">
   <path d="m-3.58,-0.56l3.18,0l0,2.13l-3.18,0l0,-2.13z" id="svg_1"/>
  </clipPath>
  <clipPath id="SvgjsClipPath25668258a2797-6626-475c-b67d-b18bf1ee38a4">
   <path d="m-3.58,-0.56l3.18,0l0,2.13l-3.18,0l0,-2.13z" id="svg_2"/>
  </clipPath>
 </defs>
 <g class="layer">
  <title>Layer 1</title>
  <g id="svg_52" transform="matrix(0.721663 0 0 0.721663 4.82053 1.36733)"/>
  <rect fill="#ffffff" height="13.92" id="svg_4" transform="matrix(0.721663 0 0 0.248177 2.31949 -0.169426)" width="13.92" x="-1.46" y="0.71"/>
  <g clip-path="url(#SvgjsClipPath25673)" id="svg_5" transform="matrix(1 0 0 1 0 0) matrix(0.721663 0 0 0.721663 4.82053 1.36733)">
   <g clip-path="url(#SvgjsClipPath25668258a2797-6626-475c-b67d-b18bf1ee38a4)" id="svg_6">
    <path d="m-1.67,0.95c0.01,-0.02 0.02,-0.05 0.02,-0.08c0,-0.03 -0.01,-0.06 -0.02,-0.09l0,0c0.1,0 0.17,-0.08 0.17,-0.17c0,-0.1 -0.07,-0.17 -0.17,-0.17l-0.17,0c0.01,-0.03 0.02,-0.06 0.02,-0.09c0,-0.03 -0.01,-0.06 -0.02,-0.09c0,0 0,0 -0.01,0c0.08,-0.02 0.13,-0.09 0.13,-0.17c0,-0.09 -0.07,-0.17 -0.17,-0.17l-0.07,0c0.01,-0.03 0.02,-0.06 0.02,-0.09c0,-0.03 -0.01,-0.06 -0.02,-0.08l0.26,0c0.08,0 0.14,-0.05 0.16,-0.11l0.74,0c0.12,0 0.22,0.09 0.22,0.21l0,1c0,0.12 -0.1,0.21 -0.22,0.21l-1.16,0c-0.01,-0.01 -0.01,-0.01 -0.01,-0.02l0.15,0c0.06,0 0.12,-0.03 0.15,-0.09z" fill="#000000" fill-rule="nonzero" id="svg_7" transform="matrix(1,0,0,1,0,0)"/>
   </g>
   <g clip-path="url(#SvgjsClipPath25668258a2797-6626-475c-b67d-b18bf1ee38a4)" id="svg_8">
    <path d="m-0.4,-0.27l0,1.24c0,0.16 -0.13,0.29 -0.29,0.29l-1.32,0c0.04,-0.03 0.06,-0.08 0.06,-0.13c0,-0.01 0,-0.02 0,-0.02l1.15,0c0.15,0 0.26,-0.12 0.26,-0.26l0,-1c0,-0.14 -0.12,-0.26 -0.26,-0.26l-0.72,0c0,0 0,-0.01 0,-0.02c0,-0.05 -0.03,-0.1 -0.06,-0.13l0.89,0c0.16,0 0.29,0.13 0.29,0.29z" fill="#000000" fill-rule="nonzero" id="svg_9" transform="matrix(1,0,0,1,0,0)"/>
   </g>
   <g clip-path="url(#SvgjsClipPath25668258a2797-6626-475c-b67d-b18bf1ee38a4)" id="svg_10">
    <path d="m-2.85,-0.34l0.09,0c0.05,0 0.09,-0.04 0.09,-0.09c0,-0.05 -0.04,-0.08 -0.09,-0.08l-0.09,0c-0.05,0 -0.09,0.03 -0.09,0.08c0,0.05 0.04,0.09 0.09,0.09z" fill="#dddee0" fill-rule="nonzero" id="svg_11" transform="matrix(1,0,0,1,0,0)"/>
   </g>
   <g clip-path="url(#SvgjsClipPath25668258a2797-6626-475c-b67d-b18bf1ee38a4)" id="svg_12">
    <path d="m-3.1,-0.08l0.12,0l0.02,0c0.05,0 0.09,-0.04 0.09,-0.09c0,-0.05 -0.04,-0.08 -0.09,-0.08l-0.14,0c-0.04,0 -0.08,0.03 -0.08,0.08c0,0.05 0.04,0.09 0.08,0.09z" fill="#dddee0" fill-rule="nonzero" id="svg_13" transform="matrix(1,0,0,1,0,0)"/>
   </g>
   <g clip-path="url(#SvgjsClipPath25668258a2797-6626-475c-b67d-b18bf1ee38a4)" id="svg_14">
    <path d="m-2.86,0.09c0,-0.05 -0.04,-0.09 -0.09,-0.09l-0.01,0l-0.02,0c-0.04,0 -0.08,0.04 -0.08,0.09c0,0.05 0.04,0.09 0.08,0.09l0.03,0c0.05,0 0.09,-0.04 0.09,-0.09z" fill="#dddee0" fill-rule="nonzero" id="svg_15" transform="matrix(1,0,0,1,0,0)"/>
   </g>
   <g clip-path="url(#SvgjsClipPath25668258a2797-6626-475c-b67d-b18bf1ee38a4)" id="svg_16">
    <path d="m-3.27,0.09c0,-0.02 -0.02,-0.04 -0.04,-0.04l-0.02,0c-0.02,0 -0.03,0.02 -0.03,0.04c0,0.02 0.01,0.04 0.03,0.04l0.02,0c0.02,0 0.04,-0.02 0.04,-0.04z" fill="#3361e1" fill-rule="nonzero" id="svg_17" transform="matrix(1,0,0,1,0,0)"/>
   </g>
   <g clip-path="url(#SvgjsClipPath25668258a2797-6626-475c-b67d-b18bf1ee38a4)" id="svg_18">
    <path d="m-2.23,0.35c0,-0.05 -0.04,-0.09 -0.09,-0.09l-0.25,0l-0.14,0c-0.05,0 -0.09,0.04 -0.09,0.09c0,0.05 0.04,0.09 0.09,0.09l0.17,0l0.08,0l0.14,0c0.05,0 0.09,-0.04 0.09,-0.09z" fill="#dddee0" fill-rule="nonzero" id="svg_19" transform="matrix(1,0,0,1,0,0)"/>
   </g>
   <g clip-path="url(#SvgjsClipPath25668258a2797-6626-475c-b67d-b18bf1ee38a4)" id="svg_20">
    <path d="m-1.99,0.26c-0.05,0 -0.09,0.04 -0.09,0.09c0,0.05 0.04,0.09 0.09,0.09c0.05,0 0.08,-0.04 0.08,-0.09c0,-0.05 -0.03,-0.09 -0.08,-0.09z" fill="#51a8db" fill-rule="nonzero" id="svg_21" transform="matrix(1,0,0,1,0,0)"/>
   </g>
   <g clip-path="url(#SvgjsClipPath25668258a2797-6626-475c-b67d-b18bf1ee38a4)" id="svg_22">
    <path d="m-2.97,0.35c0,-0.05 -0.04,-0.09 -0.08,-0.09l-0.09,0c-0.05,0 -0.09,0.04 -0.09,0.09c0,0.05 0.04,0.09 0.09,0.09l0.09,0c0.04,0 0.08,-0.04 0.08,-0.09z" fill="#3361e1" fill-rule="nonzero" id="svg_23" transform="matrix(1,0,0,1,0,0)"/>
   </g>
   <g clip-path="url(#SvgjsClipPath25668258a2797-6626-475c-b67d-b18bf1ee38a4)" id="svg_24">
    <path d="m-2.54,0.52c-0.05,0 -0.09,0.04 -0.09,0.09c0,0.05 0.04,0.09 0.09,0.09l0.04,0l0.04,0c0.05,0 0.09,-0.04 0.09,-0.09c0,-0.05 -0.04,-0.09 -0.09,-0.09l-0.08,0z" fill="#dddee0" fill-rule="nonzero" id="svg_25" transform="matrix(1,0,0,1,0,0)"/>
   </g>
   <g clip-path="url(#SvgjsClipPath25668258a2797-6626-475c-b67d-b18bf1ee38a4)" id="svg_26">
    <path d="m-3.01,0.61c0,0.05 0.04,0.09 0.09,0.09l0.07,0l0.01,0c0.05,0 0.09,-0.04 0.09,-0.09c0,-0.05 -0.04,-0.09 -0.09,-0.09l-0.08,0c-0.05,0 -0.09,0.04 -0.09,0.09z" fill="#3361e1" fill-rule="nonzero" id="svg_27" transform="matrix(1,0,0,1,0,0)"/>
   </g>
   <g clip-path="url(#SvgjsClipPath25668258a2797-6626-475c-b67d-b18bf1ee38a4)" id="svg_28">
    <path d="m-3.21,0.57l-0.04,0c-0.02,0 -0.04,0.02 -0.04,0.04c0,0.03 0.02,0.04 0.04,0.04l0.04,0c0.03,0 0.04,-0.01 0.04,-0.04c0,-0.02 -0.01,-0.04 -0.04,-0.04z" fill="#3361e1" fill-rule="nonzero" id="svg_29" transform="matrix(1,0,0,1,0,0)"/>
   </g>
   <g clip-path="url(#SvgjsClipPath25668258a2797-6626-475c-b67d-b18bf1ee38a4)" id="svg_30">
    <path d="m-2.76,0.87c0,-0.05 -0.04,-0.09 -0.09,-0.09l-0.07,0l-0.01,0c-0.05,0 -0.09,0.04 -0.09,0.09c0,0.05 0.04,0.08 0.09,0.08l0.08,0c0.05,0 0.09,-0.03 0.09,-0.08z" fill="#dddee0" fill-rule="nonzero" id="svg_31" transform="matrix(1,0,0,1,0,0)"/>
   </g>
   <g clip-path="url(#SvgjsClipPath25668258a2797-6626-475c-b67d-b18bf1ee38a4)" id="svg_32">
    <path d="m-2.65,1.04l-0.08,0c-0.05,0 -0.09,0.04 -0.09,0.09c0,0.04 0.04,0.08 0.09,0.08l0.08,0c0.05,0 0.09,-0.04 0.09,-0.08c0,-0.05 -0.04,-0.09 -0.09,-0.09z" fill="#dddee0" fill-rule="nonzero" id="svg_33" transform="matrix(1,0,0,1,0,0)"/>
   </g>
   <g clip-path="url(#SvgjsClipPath25668258a2797-6626-475c-b67d-b18bf1ee38a4)" id="svg_34">
    <path d="m-3.5,0.31l-0.04,0c-0.03,0 -0.04,0.02 -0.04,0.04c0,0.02 0.01,0.04 0.04,0.04l0.04,0c0.03,0 0.04,-0.02 0.04,-0.04c0,-0.02 -0.01,-0.04 -0.04,-0.04z" fill="#3361e1" fill-rule="nonzero" id="svg_35" transform="matrix(1,0,0,1,0,0)"/>
   </g>
   <g clip-path="url(#SvgjsClipPath25668258a2797-6626-475c-b67d-b18bf1ee38a4)" id="svg_36">
    <path d="m-1.82,0.78l-0.02,0l-0.22,0l-0.4,0l-0.04,0c-0.05,0 -0.09,0.04 -0.09,0.09c0,0.05 0.04,0.08 0.09,0.08l0.17,0l0.21,0l0.3,0c0.04,0 0.08,-0.03 0.08,-0.08c0,-0.05 -0.04,-0.09 -0.08,-0.09z" fill="#51a8db" fill-rule="nonzero" id="svg_37" transform="matrix(1,0,0,1,0,0)"/>
   </g>
   <g clip-path="url(#SvgjsClipPath25668258a2797-6626-475c-b67d-b18bf1ee38a4)" id="svg_38">
    <path d="m-1.48,1.4l-0.02,0l-0.13,0l-0.31,0l-0.05,0c-0.05,0 -0.09,0.04 -0.09,0.09c0,0.04 0.04,0.08 0.09,0.08l0.08,0l0.21,0l0.22,0c0.04,0 0.08,-0.04 0.08,-0.08c0,-0.05 -0.04,-0.09 -0.08,-0.09z" fill="#000000" fill-rule="nonzero" id="svg_39" transform="matrix(1,0,0,1,0,0)"/>
   </g>
   <g clip-path="url(#SvgjsClipPath25668258a2797-6626-475c-b67d-b18bf1ee38a4)" id="svg_40">
    <path d="m-1.8,0.09c0,-0.05 -0.04,-0.09 -0.09,-0.09l-0.22,0l-0.14,0l-0.32,0c-0.05,0 -0.09,0.04 -0.09,0.09c0,0.05 0.04,0.09 0.09,0.09l0.25,0l0.33,0l0,0l0.06,0l0.04,0c0.05,0 0.09,-0.04 0.09,-0.09z" fill="#51a8db" fill-rule="nonzero" id="svg_41" transform="matrix(1,0,0,1,0,0)"/>
   </g>
   <g clip-path="url(#SvgjsClipPath25668258a2797-6626-475c-b67d-b18bf1ee38a4)" id="svg_42">
    <path d="m-1.67,0.52l-0.26,0l-0.06,0l0,0l-0.07,0c-0.04,0 -0.08,0.04 -0.08,0.09c0,0.05 0.04,0.09 0.08,0.09l0.24,0l0.15,0c0.05,0 0.09,-0.04 0.09,-0.09c0,-0.05 -0.04,-0.09 -0.09,-0.09z" fill="#51a8db" fill-rule="nonzero" id="svg_43" transform="matrix(1,0,0,1,0,0)"/>
   </g>
   <g clip-path="url(#SvgjsClipPath25668258a2797-6626-475c-b67d-b18bf1ee38a4)" id="svg_44">
    <path d="m-2.6,-0.08l0.03,0l0.32,0l0.14,0c0.04,0 0.08,-0.04 0.08,-0.09c0,-0.05 -0.04,-0.08 -0.08,-0.08l-0.14,0l-0.13,0l-0.22,0c-0.05,0 -0.09,0.03 -0.09,0.08c0,0.05 0.04,0.09 0.09,0.09z" fill="#51a8db" fill-rule="nonzero" id="svg_45" transform="matrix(1,0,0,1,0,0)"/>
   </g>
   <g clip-path="url(#SvgjsClipPath25668258a2797-6626-475c-b67d-b18bf1ee38a4)" id="svg_46">
    <path d="m-2.38,-0.34l0.13,0l0.14,0l0.41,0c0.05,0 0.09,-0.04 0.09,-0.09c0,-0.05 -0.04,-0.08 -0.09,-0.08l-0.68,0c-0.04,0 -0.08,0.03 -0.08,0.08c0,0.05 0.04,0.09 0.08,0.09z" fill="#51a8db" fill-rule="nonzero" id="svg_47" transform="matrix(1,0,0,1,0,0)"/>
   </g>
   <g clip-path="url(#SvgjsClipPath25668258a2797-6626-475c-b67d-b18bf1ee38a4)" id="svg_48">
    <path d="m-2.12,1.04l-0.21,0c-0.05,0 -0.09,0.04 -0.09,0.09c0,0.04 0.04,0.08 0.09,0.08l0.21,0c0.05,0 0.08,-0.04 0.08,-0.08c0,-0.05 -0.03,-0.09 -0.08,-0.09z" fill="#51a8db" fill-rule="nonzero" id="svg_49" transform="matrix(1,0,0,1,0,0)"/>
   </g>
  </g>
  <g id="svg_50" transform="matrix(0.721663 0 0 0.721663 4.82053 1.36733)">
   <path d="m0.09,0.83l-0.01,-0.35q0,-0.1 0.01,-0.11q0.02,-0.01 0.05,-0.03q0.04,-0.01 0.08,-0.01q0.03,0 0.03,0q-0.01,0.07 -0.01,0.11q0,0.03 0.01,0.03q0,0 0.01,-0.01q0,0 0.02,-0.02q0.01,-0.01 0.06,-0.04q0.04,-0.02 0.08,-0.02q0.09,0 0.14,0.09q0.09,-0.12 0.19,-0.12q0.09,0 0.14,0.07q0.04,0.09 0.04,0.18q0.01,0.13 0.01,0.27l0,0.17q0,0.01 -0.05,0.02q-0.05,0.01 -0.08,0.01l-0.05,0q0.02,-0.15 0.02,-0.24q0,-0.09 -0.01,-0.13q0,-0.04 -0.01,-0.08q-0.01,-0.04 -0.02,-0.06q-0.02,-0.02 -0.05,-0.02q-0.03,0 -0.05,0.02q-0.03,0.01 -0.03,0.03q-0.01,0.01 -0.01,0.02q0,0.05 0,0.22l-0.01,0.12q0,0.01 -0.04,0.02q-0.05,0.01 -0.08,0.01l-0.05,-0.01q0.01,-0.12 0.01,-0.23q0,-0.1 -0.01,-0.15q-0.01,-0.04 -0.06,-0.04q-0.04,0 -0.08,0.05q-0.03,0.05 -0.03,0.07l0,0.04l0,0.15q0,0.15 -0.01,0.16q-0.03,0.03 -0.15,0.03q-0.01,0 -0.01,0q0.01,-0.06 0.01,-0.22m1.34,-0.29q0,-0.04 -0.05,-0.04q-0.06,0 -0.11,0.06q-0.05,0.06 -0.05,0.15q0,0.02 0.01,0.02q0.05,0 0.12,-0.06q0.08,-0.06 0.08,-0.13m0.13,0.48q-0.06,0.03 -0.2,0.03q-0.15,0 -0.23,-0.09q-0.08,-0.09 -0.08,-0.23q0,-0.15 0.09,-0.26q0.1,-0.11 0.27,-0.11q0.07,0 0.13,0.04q0.06,0.04 0.06,0.13q0,0.09 -0.08,0.18q-0.08,0.1 -0.22,0.14q0,0.02 0.03,0.03q0.04,0.01 0.08,0.01q0.11,0 0.18,-0.04q0,0 0,0q0,0 0,0.03q0,0.09 -0.03,0.14m0.33,-0.99q0,0.04 -0.01,0.19q0.11,0 0.11,0.01q0,0.05 -0.01,0.09q-0.02,0.04 -0.03,0.04l-0.07,0q0,0.22 0,0.36q0,0.14 0,0.18q0.01,0.08 0.06,0.13q0,0.02 -0.06,0.05q-0.05,0.03 -0.1,0.03q-0.01,0 -0.02,-0.02q-0.01,-0.01 -0.03,-0.04q-0.01,-0.04 -0.02,-0.07q0,-0.03 0,-0.24q0,-0.2 0,-0.38l-0.08,0q-0.01,-0.01 -0.01,-0.06q0,-0.06 0.02,-0.07q0.03,0 0.08,-0.01q0,-0.08 -0.01,-0.11q0,-0.02 0,-0.03q0,-0.01 0.05,-0.03q0.05,-0.02 0.09,-0.02q0.04,0 0.04,0m0.69,0.65q0,0.19 0,0.22q0.01,0.08 0.05,0.12q0,0.02 -0.06,0.05q-0.06,0.03 -0.11,0.03q-0.01,0 -0.02,-0.04q-0.02,-0.04 -0.02,-0.06q0,-0.02 -0.01,-0.02l0,0.01q-0.08,0.06 -0.19,0.06q-0.1,0 -0.16,-0.05q-0.06,-0.05 -0.06,-0.14q0,-0.08 0.04,-0.14q0.04,-0.06 0.09,-0.09q0.04,-0.03 0.1,-0.05q0.1,-0.03 0.15,-0.03l0,0q0,-0.07 -0.18,-0.07q-0.08,0 -0.11,0l-0.01,0q0,-0.03 0.02,-0.07q0.02,-0.05 0.04,-0.06q0.01,-0.01 0.1,-0.01q0.17,0 0.25,0.06q0.09,0.07 0.09,0.2l0,0.08m-0.17,0.1l0,-0.06q0,-0.03 0,-0.03q-0.1,0 -0.18,0.05q-0.04,0.03 -0.04,0.08q0,0.03 0.02,0.05q0.02,0.03 0.07,0.03q0.04,0 0.09,-0.03q0.04,-0.03 0.04,-0.09m0.31,0.02l0,-0.55q0,-0.19 0.01,-0.2q0.02,-0.02 0.06,-0.03q0.04,-0.02 0.08,-0.02q0.03,0 0.03,0.01q0,0.01 0,0.17q-0.01,0.15 -0.01,0.19l0.03,0q0.16,0 0.27,0.08q0.04,0.03 0.07,0.09q0.03,0.06 0.03,0.14q0,0.15 -0.11,0.24q-0.12,0.1 -0.29,0.12q0,0.04 0,0.04q-0.02,0.02 -0.07,0.03q-0.05,0.01 -0.08,0.01q-0.03,0 -0.03,0q0.01,-0.04 0.01,-0.32m0.18,0.08q0.04,0 0.08,-0.01q0.04,-0.02 0.07,-0.04q0.02,-0.02 0.04,-0.06q0.03,-0.04 0.03,-0.11q0,-0.06 -0.05,-0.1q-0.05,-0.04 -0.11,-0.04l-0.07,0.01l0,0.11q0,0.2 0.01,0.24m1.05,-0.28l0,0.4q0,0.11 -0.03,0.2q-0.03,0.1 -0.07,0.15q-0.05,0.05 -0.1,0.08q-0.1,0.05 -0.19,0.05q-0.01,0 -0.02,-0.02q-0.02,-0.03 -0.03,-0.06q-0.01,-0.04 -0.01,-0.08q0.06,0 0.11,-0.02q0.06,-0.02 0.08,-0.04q0.03,-0.03 0.05,-0.07q0.05,-0.07 0.05,-0.23l-0.01,-0.05q0,-0.01 0,-0.01q0,0 0,0.01q-0.01,0 -0.01,0.01q-0.01,0.01 -0.02,0.02q-0.02,0.02 -0.04,0.03q-0.05,0.04 -0.11,0.04q-0.05,0 -0.08,-0.01q-0.03,-0.02 -0.05,-0.04q-0.02,-0.02 -0.04,-0.06q-0.01,-0.04 -0.02,-0.07q0,-0.03 -0.01,-0.09q0,-0.08 0,-0.16q0,-0.12 0.01,-0.2l0,-0.02q0,-0.01 0.05,-0.02q0.05,-0.01 0.08,-0.01l0.04,0.01q-0.01,0.15 -0.01,0.25q0,0.1 0.02,0.17q0.02,0.07 0.07,0.07q0.05,0 0.08,-0.03q0.03,-0.03 0.03,-0.06l0.01,-0.03q0,-0.1 0,-0.2q0,-0.11 0.01,-0.12q0.02,-0.02 0.06,-0.03q0.05,-0.01 0.08,-0.01q0.03,0 0.03,0q-0.01,0.07 -0.01,0.25m0.34,-0.57q0,0.04 -0.01,0.19q0.11,0 0.11,0.01q0,0.05 -0.01,0.09q-0.02,0.04 -0.03,0.04l-0.07,0q0,0.22 0,0.36q0,0.14 0,0.18q0.01,0.08 0.06,0.13q0,0.02 -0.06,0.05q-0.05,0.03 -0.1,0.03q-0.01,0 -0.02,-0.02q-0.01,-0.01 -0.03,-0.04q-0.01,-0.04 -0.02,-0.07q0,-0.03 0,-0.24q0,-0.2 0,-0.38l-0.08,0q-0.01,-0.01 -0.01,-0.06q0,-0.06 0.02,-0.07q0.03,0 0.08,-0.01q0,-0.08 -0.01,-0.11q0,-0.02 0,-0.03q0,-0.01 0.05,-0.03q0.05,-0.02 0.09,-0.02q0.04,0 0.04,0m0.5,0.51q0,-0.04 -0.04,-0.04q-0.07,0 -0.11,0.06q-0.05,0.06 -0.05,0.15q0,0.02 0.01,0.02q0.05,0 0.12,-0.06q0.07,-0.06 0.07,-0.13m0.13,0.48q-0.05,0.03 -0.2,0.03q-0.15,0 -0.22,-0.09q-0.08,-0.09 -0.08,-0.23q0,-0.15 0.09,-0.26q0.1,-0.11 0.27,-0.11q0.07,0 0.13,0.04q0.06,0.04 0.06,0.13q0,0.09 -0.08,0.18q-0.09,0.1 -0.23,0.14q0,0.02 0.04,0.03q0.04,0.01 0.07,0.01q0.12,0 0.18,-0.04q0,0 0.01,0q0,0 0,0.03q0,0.09 -0.04,0.14m0.33,-0.73l0,0.07q0.4,0 0.4,0.31q0,0.08 -0.04,0.15q-0.03,0.07 -0.08,0.11q-0.05,0.04 -0.11,0.06q-0.1,0.05 -0.18,0.05l0,0.02q0,0.23 0.01,0.3q-0.02,0.02 -0.06,0.03q-0.05,0.02 -0.08,0.02q-0.03,0 -0.03,-0.01q-0.01,-0.05 -0.01,-0.2l0.01,-0.69q0,-0.13 0,-0.18q0.01,-0.01 0.06,-0.03q0.04,-0.02 0.07,-0.02q0.03,0 0.04,0.01m-0.01,0.51l0,0.07q0.1,0 0.16,-0.05q0.07,-0.05 0.07,-0.15q0,-0.16 -0.22,-0.16l0,0.02q0,0.02 0,0.05l-0.01,0.22m0.7,-0.65q0.03,0.02 0.03,0.07q0,0.04 -0.04,0.07q-0.03,0.03 -0.07,0.03q-0.04,0 -0.07,-0.02q-0.02,-0.03 -0.02,-0.07q0,-0.05 0.03,-0.08q0.03,-0.03 0.07,-0.03q0.05,0 0.07,0.03m0.01,0.34l0,0.25q0,0.11 0,0.17q0.01,0.05 0.04,0.1q0,0.02 -0.06,0.05q-0.06,0.03 -0.1,0.03q-0.02,0 -0.03,-0.04q-0.01,-0.05 -0.02,-0.09q0,-0.04 0,-0.27q0,-0.23 0.01,-0.25q0.03,-0.03 0.12,-0.03q0.03,0 0.04,0.01l0,0.07m0.73,0.44q0,0.03 -0.05,0.09q-0.05,0.05 -0.08,0.05q-0.04,-0.02 -0.22,-0.24q-0.12,0.2 -0.15,0.27q-0.03,0 -0.08,-0.04q-0.05,-0.04 -0.06,-0.06q0,-0.03 0.19,-0.32q-0.15,-0.2 -0.15,-0.22q0.01,-0.03 0.05,-0.07q0.04,-0.04 0.08,-0.05q0.01,0.04 0.12,0.2q0.15,-0.21 0.21,-0.25q0.01,0 0.07,0.03q0.05,0.04 0.05,0.05q-0.1,0.11 -0.23,0.3q0.17,0.21 0.25,0.26m0.43,-0.39q0,-0.04 -0.05,-0.04q-0.06,0 -0.1,0.06q-0.05,0.06 -0.05,0.15q0,0.02 0.01,0.02q0.05,0 0.12,-0.06q0.07,-0.06 0.07,-0.13m0.13,0.48q-0.05,0.03 -0.2,0.03q-0.15,0 -0.23,-0.09q-0.08,-0.09 -0.08,-0.23q0,-0.15 0.1,-0.26q0.1,-0.11 0.27,-0.11q0.07,0 0.13,0.04q0.06,0.04 0.06,0.13q0,0.09 -0.08,0.18q-0.09,0.1 -0.23,0.14q0,0.02 0.04,0.03q0.04,0.01 0.07,0.01q0.12,0 0.18,-0.04q0,0 0.01,0q0,0 0,0.03q0,0.09 -0.04,0.14m0.16,-0.22l0.01,-0.54q0,-0.12 -0.01,-0.16q0,-0.04 0,-0.05q0,-0.01 0.05,-0.03q0.05,-0.02 0.09,-0.02q0.04,0 0.04,0.01q-0.01,0.05 -0.01,0.39l0,0.36q0,0.11 0,0.13q0.01,0.07 0.04,0.12q0,0.02 -0.06,0.05q-0.06,0.03 -0.1,0.03q-0.01,0 -0.03,-0.04q-0.01,-0.05 -0.02,-0.08q0,-0.03 0,-0.17" fill="#000000" fill-rule="nonzero" id="svg_51"/>
  </g>
 </g>
</svg>