<svg id="svg" version="1.1" xmlns="http://www.w3.org/2000/svg" xmlns:xlink="http://www.w3.org/1999/xlink" width="400" height="102.12765957446808" viewBox="0, 0, 400,102.12765957446808"><g id="svgg"><path id="path0" d="M75.333 14.500 L 75.333 23.667 84.833 23.667 L 94.333 23.667 94.333 14.500 L 94.333 5.333 84.833 5.333 L 75.333 5.333 75.333 14.500 M49.833 10.333 C 49.833 10.667,49.750 10.833,49.583 10.833 C 49.446 10.833,49.333 10.946,49.333 11.083 C 49.333 11.221,49.221 11.333,49.083 11.333 C 48.917 11.333,48.833 11.500,48.833 11.833 C 48.833 12.167,48.750 12.333,48.583 12.333 C 48.446 12.333,48.333 12.446,48.333 12.583 C 48.333 12.721,48.221 12.833,48.083 12.833 C 47.946 12.833,47.833 12.938,47.833 13.066 C 47.833 13.193,47.721 13.341,47.583 13.394 C 47.446 13.446,47.333 13.679,47.333 13.911 C 47.333 14.175,47.240 14.333,47.083 14.333 C 46.946 14.333,46.833 14.446,46.833 14.583 C 46.833 14.721,46.721 14.833,46.583 14.833 C 46.417 14.833,46.333 15.000,46.333 15.333 C 46.333 15.667,46.250 15.833,46.083 15.833 C 45.946 15.833,45.833 15.946,45.833 16.083 C 45.833 16.221,45.721 16.333,45.583 16.333 C 45.446 16.333,45.333 16.438,45.333 16.566 C 45.333 16.693,45.221 16.841,45.083 16.894 C 44.946 16.946,44.833 17.179,44.833 17.411 C 44.833 17.675,44.740 17.833,44.583 17.833 C 44.446 17.833,44.333 17.946,44.333 18.083 C 44.333 18.221,44.221 18.333,44.083 18.333 C 43.917 18.333,43.833 18.500,43.833 18.833 C 43.833 19.167,43.750 19.333,43.583 19.333 C 43.446 19.333,43.333 19.446,43.333 19.583 C 43.333 19.721,43.221 19.833,43.083 19.833 C 42.946 19.833,42.833 19.914,42.833 20.012 C 42.833 20.110,42.721 20.303,42.583 20.440 C 42.446 20.578,42.333 20.835,42.333 21.012 C 42.333 21.189,42.221 21.333,42.083 21.333 C 41.946 21.333,41.833 21.446,41.833 21.583 C 41.833 21.721,41.721 21.833,41.583 21.833 C 41.417 21.833,41.333 22.000,41.333 22.333 C 41.333 22.667,41.250 22.833,41.083 22.833 C 40.946 22.833,40.833 22.946,40.833 23.083 C 40.833 23.221,40.739 23.333,40.624 23.333 C 40.003 23.333,39.863 24.819,40.459 25.081 C 40.665 25.172,40.833 25.340,40.833 25.456 C 40.833 25.572,40.946 25.667,41.083 25.667 C 41.221 25.667,41.333 25.779,41.333 25.917 C 41.333 26.054,41.448 26.167,41.589 26.167 C 41.729 26.167,41.887 26.279,41.940 26.417 C 41.992 26.554,42.215 26.667,42.434 26.667 C 42.678 26.667,42.833 26.764,42.833 26.917 C 42.833 27.054,42.946 27.167,43.083 27.167 C 43.221 27.167,43.333 27.279,43.333 27.417 C 43.333 27.583,43.500 27.667,43.833 27.667 C 44.167 27.667,44.333 27.750,44.333 27.917 C 44.333 28.054,44.446 28.167,44.583 28.167 C 44.721 28.167,44.833 28.279,44.833 28.417 C 44.833 28.554,44.938 28.667,45.066 28.667 C 45.193 28.667,45.341 28.779,45.394 28.917 C 45.446 29.054,45.679 29.167,45.911 29.167 C 46.175 29.167,46.333 29.260,46.333 29.417 C 46.333 29.554,46.446 29.667,46.583 29.667 C 46.721 29.667,46.833 29.779,46.833 29.917 C 46.833 30.083,47.000 30.167,47.333 30.167 C 47.667 30.167,47.833 30.250,47.833 30.417 C 47.833 30.554,47.946 30.667,48.083 30.667 C 48.221 30.667,48.333 30.779,48.333 30.917 C 48.333 31.054,48.446 31.167,48.583 31.167 C 48.721 31.167,48.833 31.279,48.833 31.417 C 48.833 31.583,49.000 31.667,49.333 31.667 C 49.667 31.667,49.833 31.750,49.833 31.917 C 49.833 32.054,49.946 32.167,50.083 32.167 C 50.221 32.167,50.333 32.279,50.333 32.417 C 50.333 32.554,50.475 32.667,50.649 32.667 C 50.822 32.667,51.008 32.779,51.060 32.917 C 51.113 33.054,51.309 33.167,51.495 33.167 C 51.685 33.167,51.833 33.276,51.833 33.417 C 51.833 33.554,51.946 33.667,52.083 33.667 C 52.221 33.667,52.333 33.779,52.333 33.917 C 52.333 34.083,52.500 34.167,52.833 34.167 C 53.167 34.167,53.333 34.250,53.333 34.417 C 53.333 34.554,53.446 34.667,53.583 34.667 C 53.721 34.667,53.833 34.779,53.833 34.917 C 53.833 35.480,55.659 35.244,55.775 34.667 C 55.830 34.392,55.978 34.167,56.104 34.167 C 56.230 34.167,56.333 34.054,56.333 33.917 C 56.333 33.779,56.446 33.667,56.583 33.667 C 56.750 33.667,56.833 33.500,56.833 33.167 C 56.833 32.833,56.917 32.667,57.083 32.667 C 57.221 32.667,57.333 32.554,57.333 32.417 C 57.333 32.279,57.446 32.167,57.583 32.167 C 57.721 32.167,57.833 32.086,57.833 31.988 C 57.833 31.890,57.946 31.697,58.083 31.560 C 58.221 31.422,58.333 31.165,58.333 30.988 C 58.333 30.811,58.446 30.667,58.583 30.667 C 58.721 30.667,58.833 30.554,58.833 30.417 C 58.833 30.279,58.946 30.167,59.083 30.167 C 59.250 30.167,59.333 30.000,59.333 29.667 C 59.333 29.333,59.417 29.167,59.583 29.167 C 59.721 29.167,59.833 29.054,59.833 28.917 C 59.833 28.779,59.946 28.667,60.083 28.667 C 60.221 28.667,60.333 28.562,60.333 28.434 C 60.333 28.307,60.446 28.159,60.583 28.106 C 60.721 28.054,60.833 27.821,60.833 27.589 C 60.833 27.325,60.927 27.167,61.083 27.167 C 61.221 27.167,61.333 27.054,61.333 26.917 C 61.333 26.779,61.446 26.667,61.583 26.667 C 61.750 26.667,61.833 26.500,61.833 26.167 C 61.833 25.833,61.917 25.667,62.083 25.667 C 62.221 25.667,62.333 25.554,62.333 25.417 C 62.333 25.279,62.446 25.167,62.583 25.167 C 62.721 25.167,62.833 25.062,62.833 24.934 C 62.833 24.807,62.946 24.659,63.083 24.606 C 63.221 24.554,63.333 24.321,63.333 24.089 C 63.333 23.825,63.427 23.667,63.583 23.667 C 63.721 23.667,63.833 23.554,63.833 23.417 C 63.833 23.279,63.946 23.167,64.083 23.167 C 64.250 23.167,64.333 23.000,64.333 22.667 C 64.333 22.333,64.417 22.167,64.583 22.167 C 64.721 22.167,64.833 22.054,64.833 21.917 C 64.833 21.779,64.946 21.667,65.083 21.667 C 65.221 21.667,65.333 21.562,65.333 21.434 C 65.333 21.307,65.446 21.159,65.583 21.106 C 65.968 20.959,65.911 19.989,65.512 19.885 C 65.335 19.838,65.149 19.695,65.100 19.567 C 65.051 19.438,64.858 19.333,64.672 19.333 C 64.482 19.333,64.333 19.224,64.333 19.083 C 64.333 18.946,64.221 18.833,64.083 18.833 C 63.946 18.833,63.833 18.721,63.833 18.583 C 63.833 18.417,63.667 18.333,63.333 18.333 C 63.000 18.333,62.833 18.250,62.833 18.083 C 62.833 17.946,62.721 17.833,62.583 17.833 C 62.446 17.833,62.333 17.721,62.333 17.583 C 62.333 17.431,62.178 17.333,61.934 17.333 C 61.715 17.333,61.492 17.221,61.440 17.083 C 61.387 16.946,61.229 16.833,61.089 16.833 C 60.948 16.833,60.833 16.721,60.833 16.583 C 60.833 16.446,60.729 16.333,60.601 16.333 C 60.473 16.333,60.326 16.221,60.273 16.083 C 60.220 15.946,59.987 15.833,59.755 15.833 C 59.491 15.833,59.333 15.740,59.333 15.583 C 59.333 15.446,59.221 15.333,59.083 15.333 C 58.946 15.333,58.833 15.221,58.833 15.083 C 58.833 14.917,58.667 14.833,58.333 14.833 C 58.000 14.833,57.833 14.750,57.833 14.583 C 57.833 14.446,57.721 14.333,57.583 14.333 C 57.446 14.333,57.333 14.221,57.333 14.083 C 57.333 13.946,57.191 13.833,57.018 13.833 C 56.844 13.833,56.659 13.721,56.606 13.583 C 56.554 13.446,56.358 13.333,56.172 13.333 C 55.982 13.333,55.833 13.224,55.833 13.083 C 55.833 12.946,55.729 12.833,55.601 12.833 C 55.473 12.833,55.326 12.721,55.273 12.583 C 55.220 12.446,54.987 12.333,54.755 12.333 C 54.491 12.333,54.333 12.240,54.333 12.083 C 54.333 11.946,54.221 11.833,54.083 11.833 C 53.946 11.833,53.833 11.721,53.833 11.583 C 53.833 11.417,53.667 11.333,53.333 11.333 C 53.000 11.333,52.833 11.250,52.833 11.083 C 52.833 10.946,52.721 10.833,52.583 10.833 C 52.446 10.833,52.333 10.721,52.333 10.583 C 52.333 10.446,52.218 10.333,52.078 10.333 C 51.938 10.333,51.780 10.221,51.727 10.083 C 51.515 9.531,49.833 9.753,49.833 10.333 M4.533 32.033 C 4.200 32.367,4.249 50.167,4.583 50.167 C 4.721 50.167,4.833 50.279,4.833 50.417 C 4.833 50.867,22.548 50.785,23.000 50.333 C 23.332 50.001,23.550 32.924,23.232 32.097 C 23.099 31.751,4.878 31.689,4.533 32.033 M295.727 35.583 C 295.672 35.726,295.424 35.833,295.149 35.833 C 294.831 35.833,294.667 35.919,294.667 36.083 C 294.667 36.250,294.500 36.333,294.167 36.333 C 293.833 36.333,293.667 36.417,293.667 36.583 C 293.667 36.721,293.554 36.833,293.417 36.833 C 293.279 36.833,293.167 36.946,293.167 37.083 C 293.167 37.221,293.054 37.333,292.917 37.333 C 292.779 37.333,292.667 37.474,292.667 37.646 C 292.667 37.818,292.554 38.053,292.417 38.167 C 292.279 38.281,292.167 38.590,292.167 38.854 C 292.167 39.169,292.081 39.333,291.917 39.333 C 291.707 39.333,291.667 39.685,291.667 41.500 C 291.667 43.315,291.707 43.667,291.917 43.667 C 292.083 43.667,292.167 43.833,292.167 44.167 C 292.167 44.481,292.252 44.667,292.397 44.667 C 292.524 44.667,292.676 44.798,292.735 44.958 C 293.031 45.767,293.370 46.167,293.759 46.167 C 294.010 46.167,294.167 46.263,294.167 46.417 C 294.167 46.554,294.271 46.667,294.399 46.667 C 294.527 46.667,294.674 46.779,294.727 46.917 C 294.790 47.080,295.049 47.167,295.477 47.167 C 295.905 47.167,296.164 47.253,296.227 47.417 C 296.302 47.612,296.635 47.667,297.750 47.667 C 298.865 47.667,299.198 47.612,299.273 47.417 C 299.338 47.247,299.605 47.167,300.106 47.167 C 300.608 47.167,300.874 47.087,300.940 46.917 C 300.992 46.779,301.178 46.667,301.351 46.667 C 301.525 46.667,301.667 46.554,301.667 46.417 C 301.667 46.279,301.753 46.167,301.858 46.167 C 302.095 46.167,303.167 45.081,303.167 44.842 C 303.167 44.745,303.279 44.667,303.417 44.667 C 303.583 44.667,303.667 44.500,303.667 44.167 C 303.667 43.833,303.750 43.667,303.917 43.667 C 304.126 43.667,304.167 43.315,304.167 41.500 C 304.167 39.685,304.126 39.333,303.917 39.333 C 303.750 39.333,303.667 39.167,303.667 38.833 C 303.667 38.500,303.583 38.333,303.417 38.333 C 303.279 38.333,303.167 38.195,303.167 38.026 C 303.167 37.675,302.499 36.833,302.221 36.833 C 302.119 36.833,301.992 36.721,301.940 36.583 C 301.887 36.446,301.691 36.333,301.505 36.333 C 301.315 36.333,301.167 36.224,301.167 36.083 C 301.167 35.910,300.993 35.833,300.601 35.833 C 300.252 35.833,299.999 35.738,299.940 35.583 C 299.862 35.380,299.467 35.333,297.833 35.333 C 296.200 35.333,295.805 35.380,295.727 35.583 M102.934 37.097 C 102.682 37.756,102.826 68.453,103.083 68.667 C 103.275 68.825,103.333 69.260,103.333 70.520 C 103.333 71.873,103.378 72.167,103.583 72.167 C 103.769 72.167,103.833 72.361,103.833 72.917 C 103.833 73.472,103.898 73.667,104.083 73.667 C 104.250 73.667,104.333 73.833,104.333 74.167 C 104.333 74.500,104.417 74.667,104.583 74.667 C 104.750 74.667,104.833 74.833,104.833 75.167 C 104.833 75.500,104.917 75.667,105.083 75.667 C 105.250 75.667,105.333 75.833,105.333 76.167 C 105.333 76.500,105.417 76.667,105.583 76.667 C 105.750 76.667,105.833 76.833,105.833 77.167 C 105.833 77.500,105.917 77.667,106.083 77.667 C 106.221 77.667,106.333 77.779,106.333 77.917 C 106.333 78.054,106.446 78.167,106.583 78.167 C 106.721 78.167,106.833 78.279,106.833 78.417 C 106.833 78.554,106.946 78.667,107.083 78.667 C 107.250 78.667,107.333 78.833,107.333 79.167 C 107.333 79.500,107.417 79.667,107.583 79.667 C 107.721 79.667,107.833 79.779,107.833 79.917 C 107.833 80.054,107.946 80.167,108.083 80.167 C 108.221 80.167,108.333 80.279,108.333 80.417 C 108.333 80.554,108.446 80.667,108.583 80.667 C 108.721 80.667,108.833 80.779,108.833 80.917 C 108.833 81.083,109.000 81.167,109.333 81.167 C 109.667 81.167,109.833 81.250,109.833 81.417 C 109.833 81.554,109.946 81.667,110.083 81.667 C 110.221 81.667,110.333 81.779,110.333 81.917 C 110.333 82.083,110.500 82.167,110.833 82.167 C 111.167 82.167,111.333 82.250,111.333 82.417 C 111.333 82.554,111.446 82.667,111.583 82.667 C 111.721 82.667,111.833 82.779,111.833 82.917 C 111.833 83.083,112.000 83.167,112.333 83.167 C 112.667 83.167,112.833 83.250,112.833 83.417 C 112.833 83.602,113.028 83.667,113.583 83.667 C 114.139 83.667,114.333 83.731,114.333 83.917 C 114.333 84.102,114.528 84.167,115.083 84.167 C 115.639 84.167,115.833 84.231,115.833 84.417 C 115.833 84.617,116.083 84.667,117.083 84.667 C 118.083 84.667,118.333 84.717,118.333 84.917 C 118.333 85.127,118.694 85.167,120.583 85.167 C 122.472 85.167,122.833 85.127,122.833 84.917 C 122.833 84.713,123.111 84.667,124.333 84.667 C 125.556 84.667,125.833 84.620,125.833 84.417 C 125.833 84.231,126.028 84.167,126.583 84.167 C 127.139 84.167,127.333 84.102,127.333 83.917 C 127.333 83.731,127.528 83.667,128.083 83.667 C 128.639 83.667,128.833 83.602,128.833 83.417 C 128.833 83.250,129.000 83.167,129.333 83.167 C 129.667 83.167,129.833 83.083,129.833 82.917 C 129.833 82.779,129.946 82.667,130.083 82.667 C 130.221 82.667,130.333 82.554,130.333 82.417 C 130.333 82.250,130.500 82.167,130.833 82.167 C 131.167 82.167,131.333 82.083,131.333 81.917 C 131.333 81.779,131.446 81.667,131.583 81.667 C 131.721 81.667,131.833 81.554,131.833 81.417 C 131.833 81.279,131.946 81.167,132.083 81.167 C 132.221 81.167,132.333 81.054,132.333 80.917 C 132.333 80.779,132.446 80.667,132.583 80.667 C 132.721 80.667,132.833 80.554,132.833 80.417 C 132.833 80.278,132.981 80.167,133.167 80.167 C 133.352 80.167,133.500 80.056,133.500 79.917 C 133.500 79.779,133.612 79.667,133.750 79.667 C 133.887 79.667,134.000 79.554,134.000 79.417 C 134.000 79.279,134.112 79.167,134.250 79.167 C 134.387 79.167,134.500 79.054,134.500 78.917 C 134.500 78.779,134.612 78.667,134.750 78.667 C 134.887 78.667,135.000 78.554,135.000 78.417 C 135.000 78.279,135.112 78.167,135.250 78.167 C 135.417 78.167,135.500 78.000,135.500 77.667 C 135.500 77.333,135.583 77.167,135.750 77.167 C 135.887 77.167,136.000 77.054,136.000 76.917 C 136.000 76.779,136.112 76.667,136.250 76.667 C 136.417 76.667,136.500 76.500,136.500 76.167 C 136.500 75.833,136.583 75.667,136.750 75.667 C 136.917 75.667,137.000 75.500,137.000 75.167 C 137.000 74.833,137.083 74.667,137.250 74.667 C 137.435 74.667,137.500 74.472,137.500 73.917 C 137.500 73.361,137.565 73.167,137.750 73.167 C 137.944 73.167,138.000 72.944,138.000 72.167 C 138.000 71.375,138.054 71.167,138.258 71.167 C 138.583 71.167,138.557 63.078,138.232 62.869 C 138.130 62.803,138.009 62.348,137.963 61.857 C 137.917 61.366,137.805 60.916,137.715 60.857 C 137.625 60.798,137.505 60.456,137.448 60.097 C 137.392 59.738,137.273 59.399,137.186 59.345 C 137.098 59.291,136.975 59.041,136.912 58.790 C 136.849 58.539,136.738 58.333,136.667 58.333 C 136.595 58.333,136.485 58.131,136.423 57.883 C 136.361 57.636,136.128 57.265,135.905 57.058 C 135.682 56.852,135.500 56.569,135.500 56.430 C 135.500 56.292,135.275 55.948,135.000 55.667 C 134.725 55.385,134.500 55.083,134.500 54.994 C 134.500 54.906,134.387 54.833,134.250 54.833 C 134.112 54.833,134.000 54.757,134.000 54.664 C 134.000 54.430,132.297 52.841,132.042 52.837 C 131.927 52.835,131.833 52.721,131.833 52.583 C 131.833 52.446,131.721 52.333,131.583 52.333 C 131.446 52.333,131.333 52.221,131.333 52.083 C 131.333 51.946,131.193 51.833,131.020 51.833 C 130.848 51.833,130.614 51.721,130.500 51.583 C 130.386 51.446,130.189 51.333,130.063 51.333 C 129.937 51.333,129.833 51.221,129.833 51.083 C 129.833 50.917,129.667 50.833,129.333 50.833 C 129.000 50.833,128.833 50.750,128.833 50.583 C 128.833 50.419,128.669 50.333,128.351 50.333 C 128.076 50.333,127.828 50.226,127.773 50.083 C 127.710 49.918,127.449 49.833,127.005 49.833 C 126.519 49.833,126.333 49.764,126.333 49.583 C 126.333 49.383,126.083 49.333,125.083 49.333 C 124.083 49.333,123.833 49.283,123.833 49.083 C 123.833 48.871,123.407 48.833,120.995 48.833 C 118.625 48.833,118.140 48.875,118.060 49.083 C 117.991 49.263,117.710 49.333,117.060 49.333 C 116.410 49.333,116.129 49.404,116.060 49.583 C 116.005 49.727,115.756 49.833,115.477 49.833 C 115.197 49.833,114.949 49.940,114.894 50.083 C 114.841 50.221,114.616 50.333,114.394 50.333 C 114.171 50.333,113.946 50.446,113.894 50.583 C 113.841 50.721,113.701 50.833,113.583 50.833 C 113.465 50.833,113.326 50.946,113.273 51.083 C 112.905 52.042,112.833 50.902,112.833 44.083 L 112.833 36.833 107.934 36.833 C 103.621 36.833,103.024 36.865,102.934 37.097 M185.500 43.583 L 185.500 50.333 183.500 50.333 L 181.500 50.333 181.500 55.000 L 181.500 59.667 183.500 59.667 L 185.500 59.667 185.500 65.667 C 185.500 70.889,185.532 71.667,185.750 71.667 C 185.944 71.667,186.000 71.889,186.000 72.667 C 186.000 73.444,186.056 73.667,186.250 73.667 C 186.435 73.667,186.500 73.861,186.500 74.417 C 186.500 74.972,186.565 75.167,186.750 75.167 C 186.917 75.167,187.000 75.333,187.000 75.667 C 187.000 76.000,187.083 76.167,187.250 76.167 C 187.417 76.167,187.500 76.333,187.500 76.667 C 187.500 77.000,187.583 77.167,187.750 77.167 C 187.887 77.167,188.000 77.279,188.000 77.417 C 188.000 77.554,188.112 77.667,188.250 77.667 C 188.417 77.667,188.500 77.833,188.500 78.167 C 188.500 78.500,188.583 78.667,188.750 78.667 C 188.887 78.667,189.000 78.779,189.000 78.917 C 189.000 79.054,189.112 79.167,189.250 79.167 C 189.387 79.167,189.500 79.279,189.500 79.417 C 189.500 79.554,189.612 79.667,189.750 79.667 C 189.887 79.667,190.000 79.779,190.000 79.917 C 190.000 80.054,190.112 80.167,190.250 80.167 C 190.387 80.167,190.500 80.279,190.500 80.417 C 190.500 80.554,190.612 80.667,190.750 80.667 C 190.887 80.667,191.000 80.779,191.000 80.917 C 191.000 81.054,191.112 81.167,191.250 81.167 C 191.387 81.167,191.500 81.279,191.500 81.417 C 191.500 81.583,191.667 81.667,192.000 81.667 C 192.333 81.667,192.500 81.750,192.500 81.917 C 192.500 82.083,192.667 82.167,193.000 82.167 C 193.333 82.167,193.500 82.250,193.500 82.417 C 193.500 82.554,193.612 82.667,193.750 82.667 C 193.887 82.667,194.000 82.779,194.000 82.917 C 194.000 83.102,194.194 83.167,194.750 83.167 C 195.306 83.167,195.500 83.231,195.500 83.417 C 195.500 83.602,195.694 83.667,196.250 83.667 C 196.806 83.667,197.000 83.731,197.000 83.917 C 197.000 84.134,197.750 84.167,202.750 84.167 L 208.500 84.167 208.500 79.750 L 208.500 75.333 204.750 75.333 C 201.528 75.333,201.000 75.298,201.000 75.083 C 201.000 74.889,200.778 74.833,200.000 74.833 C 199.222 74.833,199.000 74.778,199.000 74.583 C 199.000 74.417,198.833 74.333,198.500 74.333 C 198.167 74.333,198.000 74.250,198.000 74.083 C 198.000 73.946,197.887 73.833,197.750 73.833 C 197.612 73.833,197.500 73.721,197.500 73.583 C 197.500 73.446,197.387 73.333,197.250 73.333 C 197.112 73.333,197.000 73.221,197.000 73.083 C 197.000 72.946,196.887 72.833,196.750 72.833 C 196.583 72.833,196.500 72.667,196.500 72.333 C 196.500 72.000,196.417 71.833,196.250 71.833 C 196.083 71.833,196.000 71.667,196.000 71.333 C 196.000 71.000,195.917 70.833,195.750 70.833 C 195.533 70.833,195.500 70.102,195.500 65.250 L 195.500 59.667 201.724 59.667 C 207.542 59.667,207.966 59.647,208.224 59.362 C 208.466 59.095,208.500 58.520,208.500 54.695 L 208.500 50.333 202.000 50.333 L 195.500 50.333 195.500 43.583 L 195.500 36.833 190.500 36.833 L 185.500 36.833 185.500 43.583 M382.667 60.500 L 382.667 84.167 387.417 84.167 L 392.167 84.167 392.167 60.500 L 392.167 36.833 387.417 36.833 L 382.667 36.833 382.667 60.500 M69.894 39.083 C 69.841 39.221,69.693 39.333,69.566 39.333 C 69.438 39.333,69.333 39.446,69.333 39.583 C 69.333 39.721,69.221 39.833,69.083 39.833 C 68.946 39.833,68.833 39.946,68.833 40.083 C 68.833 40.250,68.667 40.333,68.333 40.333 C 68.000 40.333,67.833 40.417,67.833 40.583 C 67.833 40.721,67.721 40.833,67.583 40.833 C 67.446 40.833,67.333 40.946,67.333 41.083 C 67.333 41.221,67.221 41.333,67.083 41.333 C 66.946 41.333,66.833 41.446,66.833 41.583 C 66.833 41.750,66.667 41.833,66.333 41.833 C 66.000 41.833,65.833 41.917,65.833 42.083 C 65.833 42.221,65.721 42.333,65.583 42.333 C 65.446 42.333,65.333 42.446,65.333 42.583 C 65.333 42.721,65.221 42.833,65.083 42.833 C 64.946 42.833,64.833 42.946,64.833 43.083 C 64.833 43.250,64.667 43.333,64.333 43.333 C 64.000 43.333,63.833 43.417,63.833 43.583 C 63.833 43.721,63.721 43.833,63.583 43.833 C 63.446 43.833,63.333 43.946,63.333 44.083 C 63.333 44.221,63.221 44.333,63.083 44.333 C 62.946 44.333,62.833 44.446,62.833 44.583 C 62.833 44.740,62.675 44.833,62.411 44.833 C 62.179 44.833,61.946 44.946,61.894 45.083 C 61.841 45.221,61.693 45.333,61.566 45.333 C 61.438 45.333,61.333 45.446,61.333 45.583 C 61.333 45.721,61.221 45.833,61.083 45.833 C 60.946 45.833,60.833 45.946,60.833 46.083 C 60.833 46.240,60.675 46.333,60.411 46.333 C 60.179 46.333,59.946 46.446,59.894 46.583 C 59.841 46.721,59.693 46.833,59.566 46.833 C 59.438 46.833,59.333 46.946,59.333 47.083 C 59.333 47.221,59.221 47.333,59.083 47.333 C 58.946 47.333,58.833 47.446,58.833 47.583 C 58.833 47.740,58.675 47.833,58.411 47.833 C 58.179 47.833,57.946 47.946,57.894 48.083 C 57.841 48.221,57.693 48.333,57.566 48.333 C 57.438 48.333,57.333 48.446,57.333 48.583 C 57.333 48.721,57.221 48.833,57.083 48.833 C 56.946 48.833,56.833 48.946,56.833 49.083 C 56.833 49.221,56.721 49.333,56.583 49.333 C 56.446 49.333,56.333 49.446,56.333 49.583 C 56.333 49.721,56.221 49.833,56.083 49.833 C 55.928 49.833,55.833 49.991,55.833 50.250 C 55.833 50.509,55.928 50.667,56.083 50.667 C 56.221 50.667,56.333 50.779,56.333 50.917 C 56.333 51.054,56.446 51.167,56.583 51.167 C 56.721 51.167,56.833 51.311,56.833 51.488 C 56.833 51.665,56.946 51.922,57.083 52.060 C 57.221 52.197,57.333 52.390,57.333 52.488 C 57.333 52.586,57.446 52.667,57.583 52.667 C 57.721 52.667,57.833 52.779,57.833 52.917 C 57.833 53.054,57.927 53.167,58.042 53.168 C 58.156 53.169,58.398 53.507,58.579 53.918 C 58.760 54.330,59.004 54.667,59.121 54.667 C 59.238 54.667,59.333 54.779,59.333 54.917 C 59.333 55.054,59.446 55.167,59.583 55.167 C 59.721 55.167,59.833 55.270,59.833 55.396 C 59.833 55.523,59.946 55.719,60.083 55.833 C 60.221 55.947,60.333 56.182,60.333 56.354 C 60.333 56.526,60.446 56.667,60.583 56.667 C 60.721 56.667,60.833 56.779,60.833 56.917 C 60.833 57.054,60.946 57.167,61.083 57.167 C 61.221 57.167,61.333 57.270,61.333 57.396 C 61.333 57.523,61.446 57.719,61.583 57.833 C 61.721 57.947,61.833 58.182,61.833 58.354 C 61.833 58.526,61.946 58.667,62.083 58.667 C 62.221 58.667,62.333 58.779,62.333 58.917 C 62.333 59.054,62.446 59.167,62.583 59.167 C 62.721 59.167,62.833 59.279,62.833 59.417 C 62.833 59.554,62.946 59.667,63.083 59.667 C 63.250 59.667,63.333 59.833,63.333 60.167 C 63.333 60.500,63.417 60.667,63.583 60.667 C 63.721 60.667,63.833 60.779,63.833 60.917 C 63.833 61.054,63.946 61.167,64.083 61.167 C 64.221 61.167,64.333 61.279,64.333 61.417 C 64.333 61.554,64.446 61.667,64.583 61.667 C 64.750 61.667,64.833 61.833,64.833 62.167 C 64.833 62.500,64.917 62.667,65.083 62.667 C 65.221 62.667,65.333 62.779,65.333 62.917 C 65.333 63.054,65.446 63.167,65.583 63.167 C 65.721 63.167,65.833 63.279,65.833 63.417 C 65.833 63.554,65.941 63.667,66.072 63.667 C 66.209 63.667,66.334 63.863,66.364 64.125 C 66.427 64.674,67.579 64.922,67.769 64.427 C 67.824 64.284,67.973 64.167,68.101 64.167 C 68.229 64.167,68.333 64.054,68.333 63.917 C 68.333 63.779,68.446 63.667,68.583 63.667 C 68.721 63.667,68.833 63.554,68.833 63.417 C 68.833 63.250,69.000 63.167,69.333 63.167 C 69.667 63.167,69.833 63.083,69.833 62.917 C 69.833 62.779,69.946 62.667,70.083 62.667 C 70.221 62.667,70.333 62.554,70.333 62.417 C 70.333 62.279,70.446 62.167,70.583 62.167 C 70.721 62.167,70.833 62.054,70.833 61.917 C 70.833 61.750,71.000 61.667,71.333 61.667 C 71.667 61.667,71.833 61.583,71.833 61.417 C 71.833 61.279,71.946 61.167,72.083 61.167 C 72.221 61.167,72.333 61.054,72.333 60.917 C 72.333 60.779,72.446 60.667,72.583 60.667 C 72.721 60.667,72.833 60.554,72.833 60.417 C 72.833 60.250,73.000 60.167,73.333 60.167 C 73.667 60.167,73.833 60.083,73.833 59.917 C 73.833 59.779,73.946 59.667,74.083 59.667 C 74.221 59.667,74.333 59.554,74.333 59.417 C 74.333 59.279,74.446 59.167,74.583 59.167 C 74.721 59.167,74.833 59.054,74.833 58.917 C 74.833 58.760,74.991 58.667,75.255 58.667 C 75.487 58.667,75.720 58.554,75.773 58.417 C 75.826 58.279,75.973 58.167,76.101 58.167 C 76.229 58.167,76.333 58.054,76.333 57.917 C 76.333 57.779,76.446 57.667,76.583 57.667 C 76.721 57.667,76.833 57.554,76.833 57.417 C 76.833 57.260,76.991 57.167,77.255 57.167 C 77.487 57.167,77.720 57.054,77.773 56.917 C 77.826 56.779,77.973 56.667,78.101 56.667 C 78.229 56.667,78.333 56.554,78.333 56.417 C 78.333 56.279,78.446 56.167,78.583 56.167 C 78.721 56.167,78.833 56.054,78.833 55.917 C 78.833 55.760,78.991 55.667,79.255 55.667 C 79.487 55.667,79.720 55.554,79.773 55.417 C 79.826 55.279,79.973 55.167,80.101 55.167 C 80.229 55.167,80.333 55.054,80.333 54.917 C 80.333 54.779,80.446 54.667,80.583 54.667 C 80.721 54.667,80.833 54.554,80.833 54.417 C 80.833 54.279,80.946 54.167,81.083 54.167 C 81.221 54.167,81.333 54.054,81.333 53.917 C 81.333 53.779,81.400 53.667,81.482 53.667 C 81.758 53.667,81.821 53.178,81.576 52.933 C 81.443 52.800,81.333 52.610,81.333 52.512 C 81.333 52.414,81.221 52.333,81.083 52.333 C 80.946 52.333,80.833 52.221,80.833 52.083 C 80.833 51.946,80.721 51.833,80.583 51.833 C 80.427 51.833,80.333 51.675,80.333 51.411 C 80.333 51.179,80.221 50.946,80.083 50.894 C 79.946 50.841,79.833 50.693,79.833 50.566 C 79.833 50.438,79.721 50.333,79.583 50.333 C 79.446 50.333,79.333 50.221,79.333 50.083 C 79.333 49.946,79.221 49.833,79.083 49.833 C 78.946 49.833,78.833 49.689,78.833 49.512 C 78.833 49.335,78.721 49.078,78.583 48.940 C 78.446 48.803,78.333 48.610,78.333 48.512 C 78.333 48.414,78.221 48.333,78.083 48.333 C 77.946 48.333,77.833 48.221,77.833 48.083 C 77.833 47.946,77.740 47.833,77.625 47.832 C 77.510 47.831,77.269 47.493,77.088 47.082 C 76.907 46.670,76.663 46.333,76.546 46.333 C 76.429 46.333,76.333 46.221,76.333 46.083 C 76.333 45.946,76.221 45.833,76.083 45.833 C 75.946 45.833,75.833 45.730,75.833 45.604 C 75.833 45.477,75.721 45.281,75.583 45.167 C 75.446 45.053,75.333 44.818,75.333 44.646 C 75.333 44.474,75.221 44.333,75.083 44.333 C 74.946 44.333,74.833 44.221,74.833 44.083 C 74.833 43.946,74.721 43.833,74.583 43.833 C 74.446 43.833,74.333 43.730,74.333 43.604 C 74.333 43.477,74.221 43.281,74.083 43.167 C 73.946 43.053,73.833 42.818,73.833 42.646 C 73.833 42.474,73.721 42.333,73.583 42.333 C 73.446 42.333,73.333 42.221,73.333 42.083 C 73.333 41.946,73.221 41.833,73.083 41.833 C 72.946 41.833,72.833 41.721,72.833 41.583 C 72.833 41.446,72.721 41.333,72.583 41.333 C 72.417 41.333,72.333 41.167,72.333 40.833 C 72.333 40.500,72.250 40.333,72.083 40.333 C 71.946 40.333,71.833 40.221,71.833 40.083 C 71.833 39.946,71.721 39.833,71.583 39.833 C 71.446 39.833,71.333 39.721,71.333 39.583 C 71.333 39.446,71.229 39.333,71.101 39.333 C 70.973 39.333,70.826 39.221,70.773 39.083 C 70.720 38.946,70.522 38.833,70.333 38.833 C 70.144 38.833,69.946 38.946,69.894 39.083 M227.394 49.083 C 227.322 49.270,227.025 49.333,226.227 49.333 C 225.429 49.333,225.132 49.397,225.060 49.583 C 224.998 49.747,224.738 49.833,224.310 49.833 C 223.883 49.833,223.623 49.920,223.560 50.083 C 223.506 50.226,223.257 50.333,222.982 50.333 C 222.665 50.333,222.500 50.419,222.500 50.583 C 222.500 50.750,222.333 50.833,222.000 50.833 C 221.667 50.833,221.500 50.917,221.500 51.083 C 221.500 51.240,221.342 51.333,221.078 51.333 C 220.846 51.333,220.613 51.446,220.560 51.583 C 220.508 51.721,220.360 51.833,220.232 51.833 C 220.104 51.833,220.000 51.946,220.000 52.083 C 220.000 52.221,219.885 52.333,219.745 52.333 C 219.604 52.333,219.446 52.446,219.394 52.583 C 219.341 52.721,219.153 52.833,218.977 52.833 C 218.801 52.833,218.613 52.946,218.560 53.083 C 218.508 53.221,218.360 53.333,218.232 53.333 C 218.104 53.333,218.000 53.446,218.000 53.583 C 218.000 53.721,217.887 53.833,217.750 53.833 C 217.612 53.833,217.500 53.946,217.500 54.083 C 217.500 54.221,217.421 54.333,217.325 54.333 C 217.228 54.333,217.071 54.558,216.975 54.833 C 216.879 55.108,216.733 55.333,216.650 55.333 C 216.568 55.333,216.500 55.446,216.500 55.583 C 216.500 55.721,216.387 55.833,216.250 55.833 C 216.112 55.833,216.000 55.938,216.000 56.066 C 216.000 56.193,215.887 56.341,215.750 56.394 C 215.612 56.446,215.500 56.679,215.500 56.911 C 215.500 57.175,215.406 57.333,215.250 57.333 C 215.083 57.333,215.000 57.500,215.000 57.833 C 215.000 58.167,214.917 58.333,214.750 58.333 C 214.583 58.333,214.500 58.500,214.500 58.833 C 214.500 59.167,214.417 59.333,214.250 59.333 C 214.076 59.333,214.000 59.508,214.000 59.905 C 214.000 60.219,213.887 60.589,213.750 60.726 C 213.612 60.864,213.500 61.272,213.500 61.637 C 213.500 62.071,213.414 62.331,213.250 62.394 C 213.037 62.475,213.000 63.125,213.000 66.828 C 213.000 70.573,213.034 71.167,213.250 71.167 C 213.444 71.167,213.500 71.389,213.500 72.167 C 213.500 72.944,213.556 73.167,213.750 73.167 C 213.935 73.167,214.000 73.361,214.000 73.917 C 214.000 74.472,214.065 74.667,214.250 74.667 C 214.417 74.667,214.500 74.833,214.500 75.167 C 214.500 75.500,214.583 75.667,214.750 75.667 C 214.917 75.667,215.000 75.833,215.000 76.167 C 215.000 76.500,215.083 76.667,215.250 76.667 C 215.387 76.667,215.500 76.779,215.500 76.917 C 215.500 77.054,215.612 77.167,215.750 77.167 C 215.917 77.167,216.000 77.333,216.000 77.667 C 216.000 78.000,216.083 78.167,216.250 78.167 C 216.387 78.167,216.500 78.279,216.500 78.417 C 216.500 78.554,216.612 78.667,216.750 78.667 C 216.887 78.667,217.000 78.779,217.000 78.917 C 217.000 79.054,217.112 79.167,217.250 79.167 C 217.387 79.167,217.500 79.279,217.500 79.417 C 217.500 79.554,217.612 79.667,217.750 79.667 C 217.887 79.667,218.000 79.779,218.000 79.917 C 218.000 80.054,218.112 80.167,218.250 80.167 C 218.387 80.167,218.500 80.279,218.500 80.417 C 218.500 80.554,218.612 80.667,218.750 80.667 C 218.887 80.667,219.000 80.779,219.000 80.917 C 219.000 81.054,219.112 81.167,219.250 81.167 C 219.387 81.167,219.500 81.279,219.500 81.417 C 219.500 81.554,219.612 81.667,219.750 81.667 C 219.887 81.667,220.000 81.779,220.000 81.917 C 220.000 82.083,220.167 82.167,220.500 82.167 C 220.833 82.167,221.000 82.250,221.000 82.417 C 221.000 82.583,221.167 82.667,221.500 82.667 C 221.833 82.667,222.000 82.750,222.000 82.917 C 222.000 83.083,222.167 83.167,222.500 83.167 C 222.833 83.167,223.000 83.250,223.000 83.417 C 223.000 83.583,223.167 83.667,223.500 83.667 C 223.833 83.667,224.000 83.750,224.000 83.917 C 224.000 84.102,224.194 84.167,224.750 84.167 C 225.306 84.167,225.500 84.231,225.500 84.417 C 225.500 84.620,225.778 84.667,227.000 84.667 C 228.222 84.667,228.500 84.713,228.500 84.917 C 228.500 85.125,228.833 85.167,230.500 85.167 C 232.167 85.167,232.500 85.125,232.500 84.917 C 232.500 84.713,232.778 84.667,234.000 84.667 C 235.222 84.667,235.500 84.620,235.500 84.417 C 235.500 84.231,235.694 84.167,236.250 84.167 C 236.806 84.167,237.000 84.102,237.000 83.917 C 237.000 83.731,237.194 83.667,237.750 83.667 C 238.306 83.667,238.500 83.602,238.500 83.417 C 238.500 83.250,238.667 83.167,239.000 83.167 C 239.333 83.167,239.500 83.083,239.500 82.917 C 239.500 82.779,239.612 82.667,239.750 82.667 C 239.887 82.667,240.000 82.554,240.000 82.417 C 240.000 82.250,240.167 82.167,240.500 82.167 C 240.833 82.167,241.000 82.083,241.000 81.917 C 241.000 81.779,241.112 81.667,241.250 81.667 C 241.387 81.667,241.500 81.554,241.500 81.417 C 241.500 81.279,241.612 81.167,241.750 81.167 C 241.887 81.167,242.000 81.054,242.000 80.917 C 242.000 80.779,242.112 80.667,242.250 80.667 C 242.387 80.667,242.500 80.554,242.500 80.417 C 242.500 80.250,242.667 80.167,243.000 80.167 C 243.444 80.167,243.500 80.111,243.500 79.667 C 243.500 79.333,243.583 79.167,243.750 79.167 C 243.887 79.167,244.000 79.054,244.000 78.917 C 244.000 78.779,244.112 78.667,244.250 78.667 C 244.387 78.667,244.500 78.554,244.500 78.417 C 244.500 78.279,244.612 78.167,244.750 78.167 C 244.931 78.167,245.000 77.981,245.000 77.500 C 245.000 77.019,244.931 76.833,244.750 76.833 C 244.612 76.833,244.500 76.721,244.500 76.583 C 244.500 76.446,244.387 76.333,244.250 76.333 C 244.112 76.333,244.000 76.221,244.000 76.083 C 244.000 75.946,243.887 75.833,243.750 75.833 C 243.612 75.833,243.500 75.721,243.500 75.583 C 243.500 75.446,243.387 75.333,243.250 75.333 C 243.112 75.333,243.000 75.221,243.000 75.083 C 243.000 74.946,242.887 74.833,242.750 74.833 C 242.612 74.833,242.500 74.721,242.500 74.583 C 242.500 74.446,242.387 74.333,242.250 74.333 C 242.112 74.333,242.000 74.221,242.000 74.083 C 242.000 73.946,241.887 73.833,241.750 73.833 C 241.612 73.833,241.500 73.721,241.500 73.583 C 241.500 73.446,241.387 73.333,241.250 73.333 C 241.112 73.333,241.000 73.221,241.000 73.083 C 241.000 72.946,240.887 72.833,240.750 72.833 C 240.612 72.833,240.500 72.721,240.500 72.583 C 240.500 72.446,240.387 72.333,240.250 72.333 C 240.112 72.333,240.000 72.221,240.000 72.083 C 240.000 71.946,239.887 71.833,239.750 71.833 C 239.612 71.833,239.500 71.721,239.500 71.583 C 239.500 71.446,239.387 71.333,239.250 71.333 C 239.112 71.333,239.000 71.221,239.000 71.083 C 239.000 70.898,238.806 70.833,238.250 70.833 C 237.528 70.833,237.500 70.852,237.500 71.333 C 237.500 71.667,237.417 71.833,237.250 71.833 C 237.112 71.833,237.000 71.946,237.000 72.083 C 237.000 72.221,236.887 72.333,236.750 72.333 C 236.612 72.333,236.500 72.446,236.500 72.583 C 236.500 72.721,236.387 72.833,236.250 72.833 C 236.112 72.833,236.000 72.946,236.000 73.083 C 236.000 73.221,235.887 73.333,235.750 73.333 C 235.612 73.333,235.500 73.446,235.500 73.583 C 235.500 73.721,235.387 73.833,235.250 73.833 C 235.112 73.833,235.000 73.946,235.000 74.083 C 235.000 74.250,234.833 74.333,234.500 74.333 C 234.167 74.333,234.000 74.417,234.000 74.583 C 234.000 74.750,233.833 74.833,233.500 74.833 C 233.167 74.833,233.000 74.917,233.000 75.083 C 233.000 75.269,232.806 75.333,232.250 75.333 C 231.694 75.333,231.500 75.398,231.500 75.583 C 231.500 75.778,231.278 75.833,230.500 75.833 C 229.611 75.833,229.500 75.796,229.500 75.500 C 229.500 75.315,229.611 75.167,229.750 75.167 C 229.887 75.167,230.000 75.054,230.000 74.917 C 230.000 74.779,230.112 74.667,230.250 74.667 C 230.387 74.667,230.500 74.554,230.500 74.417 C 230.500 74.279,230.612 74.167,230.750 74.167 C 230.887 74.167,231.000 74.054,231.000 73.917 C 231.000 73.779,231.112 73.667,231.250 73.667 C 231.387 73.667,231.500 73.554,231.500 73.417 C 231.500 73.279,231.612 73.167,231.750 73.167 C 231.917 73.167,232.000 73.000,232.000 72.667 C 232.000 72.333,232.083 72.167,232.250 72.167 C 232.387 72.167,232.500 72.054,232.500 71.917 C 232.500 71.779,232.612 71.667,232.750 71.667 C 232.887 71.667,233.000 71.554,233.000 71.417 C 233.000 71.279,233.112 71.167,233.250 71.167 C 233.387 71.167,233.500 71.054,233.500 70.917 C 233.500 70.779,233.612 70.667,233.750 70.667 C 233.887 70.667,234.000 70.554,234.000 70.417 C 234.000 70.279,234.112 70.167,234.250 70.167 C 234.387 70.167,234.500 70.026,234.500 69.854 C 234.500 69.682,234.612 69.447,234.750 69.333 C 234.887 69.219,235.000 69.023,235.000 68.896 C 235.000 68.770,235.112 68.667,235.250 68.667 C 235.387 68.667,235.500 68.554,235.500 68.417 C 235.500 68.279,235.612 68.167,235.750 68.167 C 235.887 68.167,236.000 68.054,236.000 67.917 C 236.000 67.779,236.112 67.667,236.250 67.667 C 236.387 67.667,236.500 67.554,236.500 67.417 C 236.500 67.279,236.612 67.167,236.750 67.167 C 236.887 67.167,237.000 67.026,237.000 66.854 C 237.000 66.682,237.112 66.447,237.250 66.333 C 237.387 66.219,237.500 66.023,237.500 65.896 C 237.500 65.770,237.612 65.667,237.750 65.667 C 237.887 65.667,238.000 65.554,238.000 65.417 C 238.000 65.279,238.112 65.167,238.250 65.167 C 238.387 65.167,238.500 65.054,238.500 64.917 C 238.500 64.779,238.612 64.667,238.750 64.667 C 238.887 64.667,239.000 64.554,239.000 64.417 C 239.000 64.279,239.112 64.167,239.250 64.167 C 239.387 64.167,239.500 64.026,239.500 63.854 C 239.500 63.682,239.612 63.447,239.750 63.333 C 239.887 63.219,240.000 63.023,240.000 62.896 C 240.000 62.770,240.112 62.667,240.250 62.667 C 240.387 62.667,240.500 62.554,240.500 62.417 C 240.500 62.279,240.612 62.167,240.750 62.167 C 240.887 62.167,241.000 62.054,241.000 61.917 C 241.000 61.779,241.112 61.667,241.250 61.667 C 241.387 61.667,241.500 61.554,241.500 61.417 C 241.500 61.279,241.612 61.167,241.750 61.167 C 241.887 61.167,242.000 61.026,242.000 60.854 C 242.000 60.682,242.112 60.447,242.250 60.333 C 242.387 60.219,242.500 60.023,242.500 59.896 C 242.500 59.770,242.612 59.667,242.750 59.667 C 242.887 59.667,243.000 59.554,243.000 59.417 C 243.000 59.279,243.112 59.167,243.250 59.167 C 243.387 59.167,243.500 59.054,243.500 58.917 C 243.500 58.779,243.612 58.667,243.750 58.667 C 243.887 58.667,244.000 58.554,244.000 58.417 C 244.000 58.279,244.112 58.167,244.250 58.167 C 244.387 58.167,244.500 58.026,244.500 57.854 C 244.500 57.682,244.612 57.447,244.750 57.333 C 244.891 57.216,245.000 56.853,245.000 56.500 C 245.000 56.147,244.891 55.784,244.750 55.667 C 244.612 55.553,244.500 55.318,244.500 55.146 C 244.500 54.974,244.387 54.833,244.250 54.833 C 244.112 54.833,244.000 54.721,244.000 54.583 C 244.000 54.446,243.887 54.333,243.750 54.333 C 243.612 54.333,243.500 54.221,243.500 54.083 C 243.500 53.946,243.387 53.833,243.250 53.833 C 243.112 53.833,243.000 53.721,243.000 53.583 C 243.000 53.446,242.887 53.333,242.750 53.333 C 242.612 53.333,242.500 53.221,242.500 53.083 C 242.500 52.946,242.359 52.833,242.187 52.833 C 242.015 52.833,241.781 52.721,241.667 52.583 C 241.553 52.446,241.356 52.333,241.230 52.333 C 241.103 52.333,241.000 52.221,241.000 52.083 C 241.000 51.946,240.896 51.833,240.768 51.833 C 240.640 51.833,240.492 51.721,240.440 51.583 C 240.387 51.446,240.154 51.333,239.922 51.333 C 239.658 51.333,239.500 51.240,239.500 51.083 C 239.500 50.917,239.333 50.833,239.000 50.833 C 238.667 50.833,238.500 50.750,238.500 50.583 C 238.500 50.417,238.333 50.333,238.000 50.333 C 237.667 50.333,237.500 50.250,237.500 50.083 C 237.500 49.898,237.306 49.833,236.750 49.833 C 236.194 49.833,236.000 49.769,236.000 49.583 C 236.000 49.387,235.771 49.333,234.937 49.333 C 234.196 49.333,233.811 49.258,233.667 49.083 C 233.496 48.878,232.924 48.833,230.474 48.833 C 227.975 48.833,227.474 48.874,227.394 49.083 M266.667 49.083 C 266.667 49.282,266.425 49.333,265.495 49.333 C 264.607 49.333,264.300 49.394,264.227 49.583 C 264.172 49.726,263.924 49.833,263.649 49.833 C 263.331 49.833,263.167 49.919,263.167 50.083 C 263.167 50.264,262.981 50.333,262.495 50.333 C 262.051 50.333,261.790 50.418,261.727 50.583 C 261.674 50.721,261.497 50.833,261.333 50.833 C 261.170 50.833,260.992 50.946,260.940 51.083 C 260.887 51.221,260.699 51.333,260.523 51.333 C 260.347 51.333,260.159 51.446,260.106 51.583 C 260.054 51.721,259.856 51.833,259.667 51.833 C 259.478 51.833,259.280 51.946,259.227 52.083 C 259.174 52.221,259.062 52.333,258.977 52.333 C 258.892 52.333,258.602 52.558,258.333 52.833 C 258.065 53.108,257.775 53.333,257.690 53.333 C 257.605 53.333,257.492 53.446,257.440 53.583 C 257.319 53.897,257.000 53.912,257.000 53.604 C 257.000 53.477,256.887 53.281,256.750 53.167 C 256.612 53.053,256.500 52.818,256.500 52.646 C 256.500 52.474,256.387 52.333,256.250 52.333 C 256.112 52.333,256.000 52.221,256.000 52.083 C 256.000 51.946,255.887 51.833,255.750 51.833 C 255.612 51.833,255.500 51.721,255.500 51.583 C 255.500 51.446,255.387 51.333,255.250 51.333 C 255.112 51.333,255.000 51.221,255.000 51.083 C 255.000 50.946,254.887 50.833,254.750 50.833 C 254.612 50.833,254.500 50.721,254.500 50.583 C 254.500 50.377,254.194 50.333,252.750 50.333 L 251.000 50.333 251.000 73.750 L 251.000 97.167 256.000 97.167 L 261.000 97.167 261.000 90.167 L 261.000 83.167 261.482 83.167 C 261.757 83.167,262.006 83.274,262.060 83.417 C 262.123 83.580,262.383 83.667,262.810 83.667 C 263.238 83.667,263.498 83.753,263.560 83.917 C 263.616 84.063,263.866 84.167,264.161 84.167 C 264.499 84.167,264.667 84.249,264.667 84.417 C 264.667 84.611,264.889 84.667,265.667 84.667 C 266.444 84.667,266.667 84.722,266.667 84.917 C 266.667 85.129,267.083 85.167,269.417 85.167 C 271.750 85.167,272.167 85.129,272.167 84.917 C 272.167 84.717,272.417 84.667,273.417 84.667 C 274.417 84.667,274.667 84.617,274.667 84.417 C 274.667 84.231,274.861 84.167,275.417 84.167 C 275.972 84.167,276.167 84.102,276.167 83.917 C 276.167 83.750,276.333 83.667,276.667 83.667 C 277.000 83.667,277.167 83.583,277.167 83.417 C 277.167 83.250,277.333 83.167,277.667 83.167 C 278.000 83.167,278.167 83.083,278.167 82.917 C 278.167 82.750,278.333 82.667,278.667 82.667 C 279.000 82.667,279.167 82.583,279.167 82.417 C 279.167 82.279,279.279 82.167,279.417 82.167 C 279.554 82.167,279.667 82.054,279.667 81.917 C 279.667 81.750,279.833 81.667,280.167 81.667 C 280.500 81.667,280.667 81.583,280.667 81.417 C 280.667 81.279,280.779 81.167,280.917 81.167 C 281.054 81.167,281.167 81.054,281.167 80.917 C 281.167 80.779,281.279 80.667,281.417 80.667 C 281.554 80.667,281.667 80.554,281.667 80.417 C 281.667 80.279,281.779 80.167,281.917 80.167 C 282.054 80.167,282.167 80.054,282.167 79.917 C 282.167 79.779,282.279 79.667,282.417 79.667 C 282.583 79.667,282.667 79.500,282.667 79.167 C 282.667 78.833,282.750 78.667,282.917 78.667 C 283.054 78.667,283.167 78.554,283.167 78.417 C 283.167 78.279,283.279 78.167,283.417 78.167 C 283.554 78.167,283.667 78.054,283.667 77.917 C 283.667 77.779,283.779 77.667,283.917 77.667 C 284.083 77.667,284.167 77.500,284.167 77.167 C 284.167 76.833,284.250 76.667,284.417 76.667 C 284.583 76.667,284.667 76.500,284.667 76.167 C 284.667 75.833,284.750 75.667,284.917 75.667 C 285.083 75.667,285.167 75.500,285.167 75.167 C 285.167 74.833,285.250 74.667,285.417 74.667 C 285.602 74.667,285.667 74.472,285.667 73.917 C 285.667 73.361,285.731 73.167,285.917 73.167 C 286.117 73.167,286.167 72.917,286.167 71.917 C 286.167 70.917,286.217 70.667,286.417 70.667 C 286.774 70.667,286.793 63.646,286.436 63.349 C 286.297 63.234,286.177 62.713,286.134 62.048 C 286.093 61.395,285.982 60.911,285.865 60.872 C 285.756 60.835,285.667 60.595,285.667 60.337 C 285.667 60.075,285.557 59.827,285.417 59.773 C 285.272 59.718,285.167 59.469,285.167 59.184 C 285.167 58.912,285.058 58.582,284.925 58.449 C 284.792 58.316,284.634 58.010,284.573 57.770 C 284.513 57.530,284.397 57.333,284.315 57.333 C 284.234 57.333,284.167 57.229,284.167 57.101 C 284.167 56.973,284.054 56.826,283.917 56.773 C 283.779 56.720,283.667 56.522,283.667 56.333 C 283.667 56.144,283.554 55.946,283.417 55.894 C 283.279 55.841,283.167 55.693,283.167 55.566 C 283.167 55.438,283.054 55.333,282.917 55.333 C 282.779 55.333,282.667 55.263,282.667 55.176 C 282.667 54.971,280.529 52.833,280.324 52.833 C 280.237 52.833,280.167 52.721,280.167 52.583 C 280.167 52.446,280.052 52.333,279.911 52.333 C 279.771 52.333,279.613 52.221,279.560 52.083 C 279.508 51.946,279.320 51.833,279.144 51.833 C 278.967 51.833,278.780 51.721,278.727 51.583 C 278.674 51.446,278.497 51.333,278.333 51.333 C 278.170 51.333,277.992 51.221,277.940 51.083 C 277.887 50.946,277.654 50.833,277.422 50.833 C 277.158 50.833,277.000 50.740,277.000 50.583 C 277.000 50.408,276.823 50.333,276.411 50.333 C 276.042 50.333,275.787 50.240,275.727 50.083 C 275.664 49.920,275.405 49.833,274.977 49.833 C 274.549 49.833,274.290 49.747,274.227 49.583 C 274.154 49.392,273.840 49.333,272.894 49.333 C 271.947 49.333,271.634 49.274,271.560 49.083 C 271.481 48.877,271.044 48.833,269.066 48.833 C 267.044 48.833,266.667 48.873,266.667 49.083 M359.394 49.083 C 359.322 49.269,359.026 49.333,358.232 49.333 C 357.396 49.333,357.167 49.387,357.167 49.583 C 357.167 49.769,356.972 49.833,356.417 49.833 C 355.861 49.833,355.667 49.898,355.667 50.083 C 355.667 50.250,355.500 50.333,355.167 50.333 C 354.833 50.333,354.667 50.417,354.667 50.583 C 354.667 50.750,354.500 50.833,354.167 50.833 C 353.833 50.833,353.667 50.917,353.667 51.083 C 353.667 51.250,353.500 51.333,353.167 51.333 C 352.833 51.333,352.667 51.417,352.667 51.583 C 352.667 51.721,352.552 51.833,352.411 51.833 C 352.271 51.833,352.113 51.946,352.060 52.083 C 352.008 52.221,351.820 52.333,351.644 52.333 C 351.467 52.333,351.280 52.446,351.227 52.583 C 351.174 52.721,351.027 52.833,350.899 52.833 C 350.771 52.833,350.667 52.946,350.667 53.083 C 350.667 53.221,350.554 53.333,350.417 53.333 C 350.279 53.333,350.167 53.446,350.167 53.583 C 350.167 53.721,350.054 53.833,349.917 53.833 C 349.779 53.833,349.667 53.946,349.667 54.083 C 349.667 54.221,349.554 54.333,349.417 54.333 C 349.279 54.333,349.167 54.446,349.167 54.583 C 349.167 54.721,349.088 54.833,348.991 54.833 C 348.895 54.833,348.738 55.058,348.642 55.333 C 348.546 55.608,348.400 55.833,348.317 55.833 C 348.234 55.833,348.167 55.946,348.167 56.083 C 348.167 56.221,348.054 56.333,347.917 56.333 C 347.779 56.333,347.667 56.478,347.667 56.655 C 347.667 56.832,347.554 57.089,347.417 57.226 C 347.279 57.364,347.167 57.549,347.167 57.637 C 347.167 57.725,347.054 57.841,346.917 57.894 C 346.772 57.949,346.667 58.198,346.667 58.483 C 346.667 58.754,346.554 59.089,346.417 59.226 C 346.279 59.364,346.167 59.661,346.167 59.887 C 346.167 60.113,346.054 60.341,345.917 60.394 C 345.746 60.459,345.667 60.726,345.667 61.233 C 345.667 61.671,345.564 62.079,345.417 62.226 C 345.207 62.436,345.167 63.209,345.167 67.071 C 345.167 71.045,345.200 71.667,345.417 71.667 C 345.602 71.667,345.667 71.861,345.667 72.417 C 345.667 72.972,345.731 73.167,345.917 73.167 C 346.102 73.167,346.167 73.361,346.167 73.917 C 346.167 74.472,346.231 74.667,346.417 74.667 C 346.583 74.667,346.667 74.833,346.667 75.167 C 346.667 75.500,346.750 75.667,346.917 75.667 C 347.083 75.667,347.167 75.833,347.167 76.167 C 347.167 76.500,347.250 76.667,347.417 76.667 C 347.583 76.667,347.667 76.833,347.667 77.167 C 347.667 77.500,347.750 77.667,347.917 77.667 C 348.054 77.667,348.167 77.779,348.167 77.917 C 348.167 78.054,348.279 78.167,348.417 78.167 C 348.554 78.167,348.667 78.279,348.667 78.417 C 348.667 78.554,348.779 78.667,348.917 78.667 C 349.054 78.667,349.167 78.779,349.167 78.917 C 349.167 79.054,349.279 79.167,349.417 79.167 C 349.554 79.167,349.667 79.279,349.667 79.417 C 349.667 79.554,349.779 79.667,349.917 79.667 C 350.054 79.667,350.167 79.779,350.167 79.917 C 350.167 80.054,350.279 80.167,350.417 80.167 C 350.554 80.167,350.667 80.279,350.667 80.417 C 350.667 80.554,350.779 80.667,350.917 80.667 C 351.054 80.667,351.167 80.779,351.167 80.917 C 351.167 81.054,351.279 81.167,351.417 81.167 C 351.554 81.167,351.667 81.279,351.667 81.417 C 351.667 81.554,351.779 81.667,351.917 81.667 C 352.054 81.667,352.167 81.779,352.167 81.917 C 352.167 82.083,352.333 82.167,352.667 82.167 C 353.000 82.167,353.167 82.250,353.167 82.417 C 353.167 82.554,353.279 82.667,353.417 82.667 C 353.554 82.667,353.667 82.779,353.667 82.917 C 353.667 83.083,353.833 83.167,354.167 83.167 C 354.500 83.167,354.667 83.250,354.667 83.417 C 354.667 83.602,354.861 83.667,355.417 83.667 C 355.972 83.667,356.167 83.731,356.167 83.917 C 356.167 84.102,356.361 84.167,356.917 84.167 C 357.472 84.167,357.667 84.231,357.667 84.417 C 357.667 84.620,357.944 84.667,359.167 84.667 C 360.389 84.667,360.667 84.713,360.667 84.917 C 360.667 85.125,361.000 85.167,362.667 85.167 C 364.333 85.167,364.667 85.125,364.667 84.917 C 364.667 84.713,364.944 84.667,366.167 84.667 C 367.389 84.667,367.667 84.620,367.667 84.417 C 367.667 84.231,367.861 84.167,368.417 84.167 C 368.972 84.167,369.167 84.102,369.167 83.917 C 369.167 83.750,369.333 83.667,369.667 83.667 C 370.000 83.667,370.167 83.583,370.167 83.417 C 370.167 83.250,370.333 83.167,370.667 83.167 C 371.000 83.167,371.167 83.083,371.167 82.917 C 371.167 82.750,371.333 82.667,371.667 82.667 C 372.000 82.667,372.167 82.583,372.167 82.417 C 372.167 82.250,372.333 82.167,372.667 82.167 C 373.000 82.167,373.167 82.083,373.167 81.917 C 373.167 81.779,373.279 81.667,373.417 81.667 C 373.554 81.667,373.667 81.554,373.667 81.417 C 373.667 81.279,373.779 81.167,373.917 81.167 C 374.054 81.167,374.167 81.054,374.167 80.917 C 374.167 80.779,374.279 80.667,374.417 80.667 C 374.554 80.667,374.667 80.554,374.667 80.417 C 374.667 80.279,374.779 80.167,374.917 80.167 C 375.054 80.167,375.167 80.054,375.167 79.917 C 375.167 79.779,375.279 79.667,375.417 79.667 C 375.554 79.667,375.667 79.554,375.667 79.417 C 375.667 79.279,375.779 79.167,375.917 79.167 C 376.054 79.167,376.167 79.054,376.167 78.917 C 376.167 78.779,376.279 78.667,376.417 78.667 C 376.554 78.667,376.667 78.554,376.667 78.417 C 376.667 78.279,376.779 78.167,376.917 78.167 C 377.097 78.167,377.167 77.981,377.167 77.500 C 377.167 77.019,377.097 76.833,376.917 76.833 C 376.779 76.833,376.667 76.721,376.667 76.583 C 376.667 76.446,376.554 76.333,376.417 76.333 C 376.279 76.333,376.167 76.221,376.167 76.083 C 376.167 75.946,376.054 75.833,375.917 75.833 C 375.779 75.833,375.667 75.721,375.667 75.583 C 375.667 75.446,375.554 75.333,375.417 75.333 C 375.279 75.333,375.167 75.221,375.167 75.083 C 375.167 74.946,375.054 74.833,374.917 74.833 C 374.779 74.833,374.667 74.721,374.667 74.583 C 374.667 74.446,374.554 74.333,374.417 74.333 C 374.279 74.333,374.167 74.221,374.167 74.083 C 374.167 73.946,374.054 73.833,373.917 73.833 C 373.779 73.833,373.667 73.721,373.667 73.583 C 373.667 73.446,373.554 73.333,373.417 73.333 C 373.279 73.333,373.167 73.221,373.167 73.083 C 373.167 72.946,373.054 72.833,372.917 72.833 C 372.779 72.833,372.667 72.721,372.667 72.583 C 372.667 72.446,372.554 72.333,372.417 72.333 C 372.279 72.333,372.167 72.221,372.167 72.083 C 372.167 71.946,372.054 71.833,371.917 71.833 C 371.779 71.833,371.667 71.721,371.667 71.583 C 371.667 71.446,371.554 71.333,371.417 71.333 C 371.279 71.333,371.167 71.221,371.167 71.083 C 371.167 70.898,370.972 70.833,370.417 70.833 C 369.861 70.833,369.667 70.898,369.667 71.083 C 369.667 71.221,369.554 71.333,369.417 71.333 C 369.250 71.333,369.167 71.500,369.167 71.833 C 369.167 72.167,369.083 72.333,368.917 72.333 C 368.779 72.333,368.667 72.446,368.667 72.583 C 368.667 72.721,368.554 72.833,368.417 72.833 C 368.279 72.833,368.167 72.946,368.167 73.083 C 368.167 73.221,368.054 73.333,367.917 73.333 C 367.779 73.333,367.667 73.446,367.667 73.583 C 367.667 73.721,367.554 73.833,367.417 73.833 C 367.279 73.833,367.167 73.946,367.167 74.083 C 367.167 74.250,367.000 74.333,366.667 74.333 C 366.333 74.333,366.167 74.417,366.167 74.583 C 366.167 74.750,366.000 74.833,365.667 74.833 C 365.333 74.833,365.167 74.917,365.167 75.083 C 365.167 75.269,364.972 75.333,364.417 75.333 C 363.861 75.333,363.667 75.398,363.667 75.583 C 363.667 75.778,363.444 75.833,362.667 75.833 C 361.778 75.833,361.667 75.796,361.667 75.500 C 361.667 75.315,361.778 75.167,361.917 75.167 C 362.054 75.167,362.167 75.054,362.167 74.917 C 362.167 74.779,362.279 74.667,362.417 74.667 C 362.554 74.667,362.667 74.554,362.667 74.417 C 362.667 74.279,362.779 74.167,362.917 74.167 C 363.054 74.167,363.167 74.054,363.167 73.917 C 363.167 73.779,363.279 73.667,363.417 73.667 C 363.583 73.667,363.667 73.500,363.667 73.167 C 363.667 72.833,363.750 72.667,363.917 72.667 C 364.054 72.667,364.167 72.554,364.167 72.417 C 364.167 72.279,364.279 72.167,364.417 72.167 C 364.554 72.167,364.667 72.054,364.667 71.917 C 364.667 71.779,364.779 71.667,364.917 71.667 C 365.054 71.667,365.167 71.554,365.167 71.417 C 365.167 71.279,365.279 71.167,365.417 71.167 C 365.554 71.167,365.667 71.054,365.667 70.917 C 365.667 70.779,365.779 70.667,365.917 70.667 C 366.054 70.667,366.167 70.526,366.167 70.354 C 366.167 70.182,366.279 69.947,366.417 69.833 C 366.554 69.719,366.667 69.523,366.667 69.396 C 366.667 69.270,366.779 69.167,366.917 69.167 C 367.054 69.167,367.167 69.054,367.167 68.917 C 367.167 68.779,367.279 68.667,367.417 68.667 C 367.554 68.667,367.667 68.554,367.667 68.417 C 367.667 68.279,367.779 68.167,367.917 68.167 C 368.054 68.167,368.167 68.054,368.167 67.917 C 368.167 67.779,368.279 67.667,368.417 67.667 C 368.554 67.667,368.667 67.526,368.667 67.354 C 368.667 67.182,368.779 66.947,368.917 66.833 C 369.054 66.719,369.167 66.523,369.167 66.396 C 369.167 66.270,369.279 66.167,369.417 66.167 C 369.554 66.167,369.667 66.054,369.667 65.917 C 369.667 65.779,369.779 65.667,369.917 65.667 C 370.054 65.667,370.167 65.554,370.167 65.417 C 370.167 65.279,370.279 65.167,370.417 65.167 C 370.554 65.167,370.667 65.054,370.667 64.917 C 370.667 64.779,370.779 64.667,370.917 64.667 C 371.054 64.667,371.167 64.526,371.167 64.354 C 371.167 64.182,371.279 63.947,371.417 63.833 C 371.554 63.719,371.667 63.523,371.667 63.396 C 371.667 63.270,371.779 63.167,371.917 63.167 C 372.054 63.167,372.167 63.054,372.167 62.917 C 372.167 62.779,372.279 62.667,372.417 62.667 C 372.554 62.667,372.667 62.554,372.667 62.417 C 372.667 62.279,372.779 62.167,372.917 62.167 C 373.054 62.167,373.167 62.054,373.167 61.917 C 373.167 61.779,373.279 61.667,373.417 61.667 C 373.554 61.667,373.667 61.526,373.667 61.354 C 373.667 61.182,373.779 60.947,373.917 60.833 C 374.054 60.719,374.167 60.523,374.167 60.396 C 374.167 60.270,374.279 60.167,374.417 60.167 C 374.554 60.167,374.667 60.054,374.667 59.917 C 374.667 59.779,374.779 59.667,374.917 59.667 C 375.054 59.667,375.167 59.554,375.167 59.417 C 375.167 59.279,375.279 59.167,375.417 59.167 C 375.554 59.167,375.667 59.054,375.667 58.917 C 375.667 58.779,375.779 58.667,375.917 58.667 C 376.054 58.667,376.167 58.526,376.167 58.354 C 376.167 58.182,376.279 57.947,376.417 57.833 C 376.554 57.719,376.667 57.523,376.667 57.396 C 376.667 57.270,376.779 57.167,376.917 57.167 C 377.097 57.167,377.167 56.981,377.167 56.500 C 377.167 56.019,377.097 55.833,376.917 55.833 C 376.779 55.833,376.667 55.730,376.667 55.604 C 376.667 55.477,376.554 55.281,376.417 55.167 C 376.279 55.053,376.167 54.818,376.167 54.646 C 376.167 54.474,376.054 54.333,375.917 54.333 C 375.779 54.333,375.667 54.221,375.667 54.083 C 375.667 53.946,375.554 53.833,375.417 53.833 C 375.279 53.833,375.167 53.721,375.167 53.583 C 375.167 53.446,375.026 53.333,374.854 53.333 C 374.682 53.333,374.447 53.221,374.333 53.083 C 374.219 52.946,374.023 52.833,373.896 52.833 C 373.770 52.833,373.667 52.721,373.667 52.583 C 373.667 52.446,373.554 52.333,373.417 52.333 C 373.279 52.333,373.167 52.221,373.167 52.083 C 373.167 51.946,373.026 51.833,372.854 51.833 C 372.682 51.833,372.447 51.721,372.333 51.583 C 372.219 51.446,372.023 51.333,371.896 51.333 C 371.770 51.333,371.667 51.221,371.667 51.083 C 371.667 50.917,371.500 50.833,371.167 50.833 C 370.833 50.833,370.667 50.750,370.667 50.583 C 370.667 50.419,370.502 50.333,370.184 50.333 C 369.910 50.333,369.661 50.226,369.606 50.083 C 369.543 49.918,369.282 49.833,368.839 49.833 C 368.352 49.833,368.167 49.764,368.167 49.583 C 368.167 49.383,367.917 49.333,366.917 49.333 C 365.917 49.333,365.667 49.283,365.667 49.083 C 365.667 48.870,365.212 48.833,362.578 48.833 C 359.986 48.833,359.474 48.874,359.394 49.083 M307.275 50.079 C 307.223 50.213,307.290 50.433,307.424 50.567 C 307.557 50.700,307.667 50.881,307.667 50.968 C 307.667 51.055,307.779 51.219,307.917 51.333 C 308.054 51.447,308.167 51.682,308.167 51.854 C 308.167 52.026,308.279 52.167,308.417 52.167 C 308.554 52.167,308.667 52.279,308.667 52.417 C 308.667 52.554,308.779 52.667,308.917 52.667 C 309.054 52.667,309.167 52.770,309.167 52.896 C 309.167 53.023,309.279 53.219,309.417 53.333 C 309.554 53.447,309.667 53.682,309.667 53.854 C 309.667 54.026,309.779 54.167,309.917 54.167 C 310.054 54.167,310.167 54.279,310.167 54.417 C 310.167 54.554,310.279 54.667,310.417 54.667 C 310.573 54.667,310.667 54.825,310.667 55.089 C 310.667 55.321,310.779 55.554,310.917 55.606 C 311.054 55.659,311.167 55.807,311.167 55.934 C 311.167 56.062,311.279 56.167,311.417 56.167 C 311.554 56.167,311.667 56.279,311.667 56.417 C 311.667 56.554,311.779 56.667,311.917 56.667 C 312.083 56.667,312.167 56.833,312.167 57.167 C 312.167 57.500,312.250 57.667,312.417 57.667 C 312.554 57.667,312.667 57.779,312.667 57.917 C 312.667 58.054,312.779 58.167,312.917 58.167 C 313.054 58.167,313.167 58.279,313.167 58.417 C 313.167 58.554,313.279 58.667,313.417 58.667 C 313.573 58.667,313.667 58.825,313.667 59.089 C 313.667 59.321,313.779 59.554,313.917 59.606 C 314.054 59.659,314.167 59.807,314.167 59.934 C 314.167 60.062,314.270 60.167,314.397 60.167 C 314.524 60.167,314.676 60.298,314.735 60.458 C 314.943 61.025,315.354 61.667,315.509 61.667 C 315.596 61.667,315.667 61.779,315.667 61.917 C 315.667 62.054,315.779 62.167,315.917 62.167 C 316.054 62.167,316.167 62.270,316.167 62.396 C 316.167 62.523,316.279 62.719,316.417 62.833 C 316.554 62.947,316.667 63.182,316.667 63.354 C 316.667 63.526,316.779 63.667,316.917 63.667 C 317.054 63.667,317.167 63.779,317.167 63.917 C 317.167 64.054,317.279 64.167,317.417 64.167 C 317.554 64.167,317.667 64.270,317.667 64.396 C 317.667 64.523,317.779 64.719,317.917 64.833 C 318.054 64.947,318.167 65.182,318.167 65.354 C 318.167 65.526,318.279 65.667,318.417 65.667 C 318.554 65.667,318.667 65.779,318.667 65.917 C 318.667 66.054,318.779 66.167,318.917 66.167 C 319.315 66.167,319.302 67.155,318.901 67.383 C 318.772 67.457,318.667 67.700,318.667 67.925 C 318.667 68.177,318.571 68.333,318.417 68.333 C 318.279 68.333,318.167 68.446,318.167 68.583 C 318.167 68.721,318.054 68.833,317.917 68.833 C 317.779 68.833,317.667 68.974,317.667 69.146 C 317.667 69.318,317.554 69.553,317.417 69.667 C 317.279 69.781,317.167 69.977,317.167 70.104 C 317.167 70.230,317.054 70.333,316.917 70.333 C 316.779 70.333,316.667 70.446,316.667 70.583 C 316.667 70.721,316.554 70.833,316.417 70.833 C 316.250 70.833,316.167 71.000,316.167 71.333 C 316.167 71.667,316.083 71.833,315.917 71.833 C 315.779 71.833,315.667 71.946,315.667 72.083 C 315.667 72.221,315.554 72.333,315.417 72.333 C 315.250 72.333,315.167 72.500,315.167 72.833 C 315.167 73.167,315.083 73.333,314.917 73.333 C 314.779 73.333,314.667 73.446,314.667 73.583 C 314.667 73.721,314.554 73.833,314.417 73.833 C 314.279 73.833,314.167 73.946,314.167 74.083 C 314.167 74.221,314.054 74.333,313.917 74.333 C 313.750 74.333,313.667 74.500,313.667 74.833 C 313.667 75.167,313.583 75.333,313.417 75.333 C 313.279 75.333,313.167 75.446,313.167 75.583 C 313.167 75.721,313.054 75.833,312.917 75.833 C 312.750 75.833,312.667 76.000,312.667 76.333 C 312.667 76.667,312.583 76.833,312.417 76.833 C 312.279 76.833,312.167 76.946,312.167 77.083 C 312.167 77.221,312.054 77.333,311.917 77.333 C 311.779 77.333,311.667 77.446,311.667 77.583 C 311.667 77.721,311.554 77.833,311.417 77.833 C 311.250 77.833,311.167 78.000,311.167 78.333 C 311.167 78.667,311.083 78.833,310.917 78.833 C 310.779 78.833,310.667 78.946,310.667 79.083 C 310.667 79.221,310.554 79.333,310.417 79.333 C 310.250 79.333,310.167 79.500,310.167 79.833 C 310.167 80.167,310.083 80.333,309.917 80.333 C 309.779 80.333,309.667 80.446,309.667 80.583 C 309.667 80.721,309.554 80.833,309.417 80.833 C 309.279 80.833,309.167 80.946,309.167 81.083 C 309.167 81.221,309.054 81.333,308.917 81.333 C 308.750 81.333,308.667 81.500,308.667 81.833 C 308.667 82.167,308.583 82.333,308.417 82.333 C 308.279 82.333,308.167 82.446,308.167 82.583 C 308.167 82.721,308.054 82.833,307.917 82.833 C 307.736 82.833,307.667 83.019,307.667 83.500 L 307.667 84.167 313.417 84.167 C 318.417 84.167,319.167 84.134,319.167 83.917 C 319.167 83.779,319.279 83.667,319.417 83.667 C 319.554 83.667,319.667 83.554,319.667 83.417 C 319.667 83.279,319.779 83.167,319.917 83.167 C 320.083 83.167,320.167 83.000,320.167 82.667 C 320.167 82.333,320.250 82.167,320.417 82.167 C 320.583 82.167,320.667 82.000,320.667 81.667 C 320.667 81.333,320.750 81.167,320.917 81.167 C 321.054 81.167,321.167 81.054,321.167 80.917 C 321.167 80.779,321.279 80.667,321.417 80.667 C 321.583 80.667,321.667 80.500,321.667 80.167 C 321.667 79.833,321.750 79.667,321.917 79.667 C 322.054 79.667,322.167 79.554,322.167 79.417 C 322.167 79.279,322.279 79.167,322.417 79.167 C 322.583 79.167,322.667 79.000,322.667 78.667 C 322.667 78.333,322.750 78.167,322.917 78.167 C 323.054 78.167,323.167 78.054,323.167 77.917 C 323.167 77.779,323.279 77.667,323.417 77.667 C 323.583 77.667,323.667 77.500,323.667 77.167 C 323.667 76.833,323.750 76.667,323.917 76.667 C 324.054 76.667,324.167 76.554,324.167 76.417 C 324.167 76.279,324.279 76.167,324.417 76.167 C 324.583 76.167,324.667 76.000,324.667 75.667 C 324.667 75.222,324.722 75.167,325.167 75.167 C 325.611 75.167,325.667 75.222,325.667 75.667 C 325.667 76.000,325.750 76.167,325.917 76.167 C 326.083 76.167,326.167 76.333,326.167 76.667 C 326.167 77.000,326.250 77.167,326.417 77.167 C 326.554 77.167,326.667 77.279,326.667 77.417 C 326.667 77.554,326.779 77.667,326.917 77.667 C 327.083 77.667,327.167 77.833,327.167 78.167 C 327.167 78.500,327.250 78.667,327.417 78.667 C 327.554 78.667,327.667 78.779,327.667 78.917 C 327.667 79.054,327.779 79.167,327.917 79.167 C 328.083 79.167,328.167 79.333,328.167 79.667 C 328.167 80.000,328.250 80.167,328.417 80.167 C 328.554 80.167,328.667 80.279,328.667 80.417 C 328.667 80.554,328.779 80.667,328.917 80.667 C 329.083 80.667,329.167 80.833,329.167 81.167 C 329.167 81.500,329.250 81.667,329.417 81.667 C 329.554 81.667,329.667 81.779,329.667 81.917 C 329.667 82.054,329.779 82.167,329.917 82.167 C 330.083 82.167,330.167 82.333,330.167 82.667 C 330.167 83.000,330.250 83.167,330.417 83.167 C 330.554 83.167,330.667 83.279,330.667 83.417 C 330.667 83.554,330.779 83.667,330.917 83.667 C 331.054 83.667,331.167 83.779,331.167 83.917 C 331.167 84.134,331.917 84.167,336.917 84.167 L 342.667 84.167 342.667 83.750 C 342.667 83.491,342.572 83.333,342.417 83.333 C 342.250 83.333,342.167 83.167,342.167 82.833 C 342.167 82.500,342.083 82.333,341.917 82.333 C 341.779 82.333,341.667 82.221,341.667 82.083 C 341.667 81.946,341.554 81.833,341.417 81.833 C 341.250 81.833,341.167 81.667,341.167 81.333 C 341.167 81.000,341.083 80.833,340.917 80.833 C 340.779 80.833,340.667 80.721,340.667 80.583 C 340.667 80.446,340.554 80.333,340.417 80.333 C 340.279 80.333,340.167 80.221,340.167 80.083 C 340.167 79.946,340.054 79.833,339.917 79.833 C 339.750 79.833,339.667 79.667,339.667 79.333 C 339.667 79.000,339.583 78.833,339.417 78.833 C 339.279 78.833,339.167 78.721,339.167 78.583 C 339.167 78.446,339.054 78.333,338.917 78.333 C 338.750 78.333,338.667 78.167,338.667 77.833 C 338.667 77.500,338.583 77.333,338.417 77.333 C 338.279 77.333,338.167 77.221,338.167 77.083 C 338.167 76.946,338.054 76.833,337.917 76.833 C 337.779 76.833,337.667 76.721,337.667 76.583 C 337.667 76.446,337.554 76.333,337.417 76.333 C 337.250 76.333,337.167 76.167,337.167 75.833 C 337.167 75.500,337.083 75.333,336.917 75.333 C 336.779 75.333,336.667 75.221,336.667 75.083 C 336.667 74.946,336.554 74.833,336.417 74.833 C 336.250 74.833,336.167 74.667,336.167 74.333 C 336.167 74.000,336.083 73.833,335.917 73.833 C 335.779 73.833,335.667 73.721,335.667 73.583 C 335.667 73.446,335.554 73.333,335.417 73.333 C 335.279 73.333,335.167 73.221,335.167 73.083 C 335.167 72.946,335.054 72.833,334.917 72.833 C 334.750 72.833,334.667 72.667,334.667 72.333 C 334.667 72.000,334.583 71.833,334.417 71.833 C 334.279 71.833,334.167 71.721,334.167 71.583 C 334.167 71.446,334.054 71.333,333.917 71.333 C 333.750 71.333,333.667 71.167,333.667 70.833 C 333.667 70.500,333.583 70.333,333.417 70.333 C 333.279 70.333,333.167 70.221,333.167 70.083 C 333.167 69.946,333.054 69.833,332.917 69.833 C 332.779 69.833,332.667 69.753,332.667 69.655 C 332.667 69.557,332.554 69.364,332.417 69.226 C 332.279 69.089,332.167 68.832,332.167 68.655 C 332.167 68.478,332.054 68.333,331.917 68.333 C 331.779 68.333,331.667 68.221,331.667 68.083 C 331.667 67.946,331.554 67.833,331.417 67.833 C 331.262 67.833,331.167 67.677,331.167 67.425 C 331.167 67.200,331.035 66.940,330.875 66.847 C 330.597 66.685,330.597 66.677,330.875 66.672 C 331.035 66.669,331.167 66.554,331.167 66.417 C 331.167 66.279,331.246 66.167,331.342 66.167 C 331.438 66.167,331.596 65.942,331.692 65.667 C 331.788 65.392,331.934 65.167,332.016 65.167 C 332.099 65.167,332.167 65.054,332.167 64.917 C 332.167 64.779,332.279 64.667,332.417 64.667 C 332.554 64.667,332.667 64.554,332.667 64.417 C 332.667 64.279,332.746 64.167,332.842 64.167 C 332.938 64.167,333.096 63.942,333.192 63.667 C 333.288 63.392,333.434 63.167,333.516 63.167 C 333.599 63.167,333.667 63.054,333.667 62.917 C 333.667 62.779,333.779 62.667,333.917 62.667 C 334.054 62.667,334.167 62.562,334.167 62.434 C 334.167 62.307,334.279 62.159,334.417 62.106 C 334.554 62.054,334.667 61.821,334.667 61.589 C 334.667 61.325,334.760 61.167,334.917 61.167 C 335.054 61.167,335.167 61.054,335.167 60.917 C 335.167 60.779,335.279 60.667,335.417 60.667 C 335.554 60.667,335.667 60.562,335.667 60.434 C 335.667 60.307,335.779 60.159,335.917 60.106 C 336.054 60.054,336.167 59.821,336.167 59.589 C 336.167 59.325,336.260 59.167,336.417 59.167 C 336.554 59.167,336.667 59.054,336.667 58.917 C 336.667 58.779,336.779 58.667,336.917 58.667 C 337.054 58.667,337.167 58.562,337.167 58.434 C 337.167 58.307,337.279 58.159,337.417 58.106 C 337.554 58.054,337.667 57.821,337.667 57.589 C 337.667 57.325,337.760 57.167,337.917 57.167 C 338.054 57.167,338.167 57.054,338.167 56.917 C 338.167 56.779,338.279 56.667,338.417 56.667 C 338.554 56.667,338.667 56.526,338.667 56.354 C 338.667 56.182,338.779 55.947,338.917 55.833 C 339.054 55.719,339.167 55.523,339.167 55.396 C 339.167 55.270,339.279 55.167,339.417 55.167 C 339.554 55.167,339.667 55.054,339.667 54.917 C 339.667 54.779,339.779 54.667,339.917 54.667 C 340.054 54.667,340.167 54.526,340.167 54.354 C 340.167 54.182,340.279 53.947,340.417 53.833 C 340.554 53.719,340.667 53.523,340.667 53.396 C 340.667 53.270,340.779 53.167,340.917 53.167 C 341.054 53.167,341.167 53.054,341.167 52.917 C 341.167 52.779,341.279 52.667,341.417 52.667 C 341.554 52.667,341.667 52.526,341.667 52.354 C 341.667 52.182,341.779 51.947,341.917 51.833 C 342.054 51.719,342.167 51.523,342.167 51.396 C 342.167 51.270,342.279 51.167,342.417 51.167 C 342.597 51.167,342.667 50.981,342.667 50.500 L 342.667 49.833 336.917 49.833 C 331.917 49.833,331.167 49.866,331.167 50.083 C 331.167 50.221,331.054 50.333,330.917 50.333 C 330.779 50.333,330.667 50.474,330.667 50.646 C 330.667 50.818,330.554 51.053,330.417 51.167 C 330.279 51.281,330.167 51.477,330.167 51.604 C 330.167 51.730,330.054 51.833,329.917 51.833 C 329.779 51.833,329.667 51.974,329.667 52.146 C 329.667 52.318,329.554 52.553,329.417 52.667 C 329.279 52.781,329.167 52.977,329.167 53.104 C 329.167 53.230,329.054 53.333,328.917 53.333 C 328.779 53.333,328.667 53.438,328.667 53.566 C 328.667 53.693,328.554 53.841,328.417 53.894 C 328.279 53.946,328.167 54.179,328.167 54.411 C 328.167 54.675,328.073 54.833,327.917 54.833 C 327.779 54.833,327.667 54.946,327.667 55.083 C 327.667 55.221,327.554 55.333,327.417 55.333 C 327.250 55.333,327.167 55.500,327.167 55.833 C 327.167 56.167,327.083 56.333,326.917 56.333 C 326.779 56.333,326.667 56.446,326.667 56.583 C 326.667 56.721,326.554 56.833,326.417 56.833 C 326.279 56.833,326.167 56.974,326.167 57.146 C 326.167 57.318,326.054 57.553,325.917 57.667 C 325.779 57.781,325.667 57.977,325.667 58.104 C 325.667 58.248,325.480 58.333,325.167 58.333 C 324.833 58.333,324.667 58.250,324.667 58.083 C 324.667 57.946,324.554 57.833,324.417 57.833 C 324.260 57.833,324.167 57.675,324.167 57.411 C 324.167 57.179,324.054 56.946,323.917 56.894 C 323.779 56.841,323.667 56.693,323.667 56.566 C 323.667 56.438,323.554 56.333,323.417 56.333 C 323.279 56.333,323.167 56.253,323.167 56.155 C 323.167 56.057,323.054 55.864,322.917 55.726 C 322.779 55.589,322.667 55.332,322.667 55.155 C 322.667 54.978,322.554 54.833,322.417 54.833 C 322.279 54.833,322.167 54.721,322.167 54.583 C 322.167 54.446,322.099 54.333,322.016 54.333 C 321.934 54.333,321.788 54.108,321.692 53.833 C 321.596 53.558,321.438 53.333,321.342 53.333 C 321.246 53.333,321.167 53.221,321.167 53.083 C 321.167 52.946,321.054 52.833,320.917 52.833 C 320.760 52.833,320.667 52.675,320.667 52.411 C 320.667 52.179,320.554 51.946,320.417 51.894 C 320.279 51.841,320.167 51.693,320.167 51.566 C 320.167 51.438,320.054 51.333,319.917 51.333 C 319.779 51.333,319.667 51.253,319.667 51.155 C 319.667 51.057,319.554 50.864,319.417 50.726 C 319.279 50.589,319.167 50.332,319.167 50.155 C 319.167 49.718,307.442 49.643,307.275 50.079 M144.500 61.500 C 144.500 71.315,144.530 72.667,144.750 72.667 C 144.944 72.667,145.000 72.889,145.000 73.667 C 145.000 74.444,145.056 74.667,145.250 74.667 C 145.435 74.667,145.500 74.861,145.500 75.417 C 145.500 75.972,145.565 76.167,145.750 76.167 C 145.917 76.167,146.000 76.333,146.000 76.667 C 146.000 77.000,146.083 77.167,146.250 77.167 C 146.417 77.167,146.500 77.333,146.500 77.667 C 146.500 78.000,146.583 78.167,146.750 78.167 C 146.887 78.167,147.000 78.279,147.000 78.417 C 147.000 78.554,147.112 78.667,147.250 78.667 C 147.417 78.667,147.500 78.833,147.500 79.167 C 147.500 79.500,147.583 79.667,147.750 79.667 C 147.887 79.667,148.000 79.779,148.000 79.917 C 148.000 80.054,148.112 80.167,148.250 80.167 C 148.387 80.167,148.500 80.279,148.500 80.417 C 148.500 80.554,148.612 80.667,148.750 80.667 C 148.887 80.667,149.000 80.779,149.000 80.917 C 149.000 81.054,149.112 81.167,149.250 81.167 C 149.387 81.167,149.500 81.279,149.500 81.417 C 149.500 81.554,149.612 81.667,149.750 81.667 C 149.887 81.667,150.000 81.779,150.000 81.917 C 150.000 82.083,150.167 82.167,150.500 82.167 C 150.833 82.167,151.000 82.250,151.000 82.417 C 151.000 82.554,151.112 82.667,151.250 82.667 C 151.387 82.667,151.500 82.779,151.500 82.917 C 151.500 83.083,151.667 83.167,152.000 83.167 C 152.333 83.167,152.500 83.250,152.500 83.417 C 152.500 83.583,152.667 83.667,153.000 83.667 C 153.333 83.667,153.500 83.750,153.500 83.917 C 153.500 84.102,153.694 84.167,154.250 84.167 C 154.806 84.167,155.000 84.231,155.000 84.417 C 155.000 84.620,155.278 84.667,156.500 84.667 C 157.722 84.667,158.000 84.713,158.000 84.917 C 158.000 85.123,158.306 85.167,159.750 85.167 C 161.194 85.167,161.500 85.123,161.500 84.917 C 161.500 84.722,161.722 84.667,162.500 84.667 C 163.278 84.667,163.500 84.611,163.500 84.417 C 163.500 84.242,163.663 84.172,164.042 84.186 C 164.340 84.197,164.452 84.240,164.292 84.282 C 164.131 84.323,164.000 84.465,164.000 84.596 C 164.000 84.726,163.887 84.833,163.750 84.833 C 163.612 84.833,163.500 84.946,163.500 85.083 C 163.500 85.221,163.387 85.333,163.250 85.333 C 163.112 85.333,163.000 85.446,163.000 85.583 C 163.000 85.721,162.887 85.833,162.750 85.833 C 162.612 85.833,162.500 85.946,162.500 86.083 C 162.500 86.221,162.387 86.333,162.250 86.333 C 162.112 86.333,162.000 86.446,162.000 86.583 C 162.000 86.750,161.833 86.833,161.500 86.833 C 161.167 86.833,161.000 86.917,161.000 87.083 C 161.000 87.269,160.806 87.333,160.250 87.333 C 159.694 87.333,159.500 87.398,159.500 87.583 C 159.500 87.797,159.028 87.833,156.250 87.833 L 153.000 87.833 153.000 92.500 L 153.000 97.167 157.250 97.167 C 160.917 97.167,161.500 97.132,161.500 96.917 C 161.500 96.722,161.722 96.667,162.500 96.667 C 163.278 96.667,163.500 96.611,163.500 96.417 C 163.500 96.231,163.694 96.167,164.250 96.167 C 164.806 96.167,165.000 96.102,165.000 95.917 C 165.000 95.750,165.167 95.667,165.500 95.667 C 165.833 95.667,166.000 95.583,166.000 95.417 C 166.000 95.250,166.167 95.167,166.500 95.167 C 166.833 95.167,167.000 95.083,167.000 94.917 C 167.000 94.750,167.167 94.667,167.500 94.667 C 167.833 94.667,168.000 94.583,168.000 94.417 C 168.000 94.279,168.112 94.167,168.250 94.167 C 168.387 94.167,168.500 94.054,168.500 93.917 C 168.500 93.779,168.612 93.667,168.750 93.667 C 168.887 93.667,169.000 93.554,169.000 93.417 C 169.000 93.279,169.112 93.167,169.250 93.167 C 169.387 93.167,169.500 93.054,169.500 92.917 C 169.500 92.750,169.667 92.667,170.000 92.667 C 170.333 92.667,170.500 92.583,170.500 92.417 C 170.500 92.279,170.612 92.167,170.750 92.167 C 170.917 92.167,171.000 92.000,171.000 91.667 C 171.000 91.333,171.083 91.167,171.250 91.167 C 171.387 91.167,171.500 91.054,171.500 90.917 C 171.500 90.779,171.612 90.667,171.750 90.667 C 171.887 90.667,172.000 90.554,172.000 90.417 C 172.000 90.279,172.112 90.167,172.250 90.167 C 172.387 90.167,172.500 90.054,172.500 89.917 C 172.500 89.779,172.612 89.667,172.750 89.667 C 172.917 89.667,173.000 89.500,173.000 89.167 C 173.000 88.833,173.083 88.667,173.250 88.667 C 173.417 88.667,173.500 88.500,173.500 88.167 C 173.500 87.833,173.583 87.667,173.750 87.667 C 173.917 87.667,174.000 87.500,174.000 87.167 C 174.000 86.833,174.083 86.667,174.250 86.667 C 174.417 86.667,174.500 86.500,174.500 86.167 C 174.500 85.833,174.583 85.667,174.750 85.667 C 174.944 85.667,175.000 85.444,175.000 84.667 C 175.000 83.889,175.056 83.667,175.250 83.667 C 175.471 83.667,175.500 81.704,175.500 67.000 L 175.500 50.333 170.750 50.333 L 166.000 50.333 166.000 60.083 C 166.000 68.639,165.969 69.833,165.750 69.833 C 165.565 69.833,165.500 70.028,165.500 70.583 C 165.500 71.139,165.435 71.333,165.250 71.333 C 165.083 71.333,165.000 71.500,165.000 71.833 C 165.000 72.167,164.917 72.333,164.750 72.333 C 164.583 72.333,164.500 72.500,164.500 72.833 C 164.500 73.167,164.417 73.333,164.250 73.333 C 164.112 73.333,164.000 73.446,164.000 73.583 C 164.000 73.721,163.887 73.833,163.750 73.833 C 163.612 73.833,163.500 73.946,163.500 74.083 C 163.500 74.221,163.387 74.333,163.250 74.333 C 163.112 74.333,163.000 74.446,163.000 74.583 C 163.000 74.750,162.833 74.833,162.500 74.833 C 162.167 74.833,162.000 74.917,162.000 75.083 C 162.000 75.250,161.833 75.333,161.500 75.333 C 161.167 75.333,161.000 75.417,161.000 75.583 C 161.000 75.778,160.778 75.833,160.000 75.833 C 159.222 75.833,159.000 75.778,159.000 75.583 C 159.000 75.398,158.806 75.333,158.250 75.333 C 157.694 75.333,157.500 75.269,157.500 75.083 C 157.500 74.917,157.333 74.833,157.000 74.833 C 156.667 74.833,156.500 74.750,156.500 74.583 C 156.500 74.446,156.387 74.333,156.250 74.333 C 156.112 74.333,156.000 74.221,156.000 74.083 C 156.000 73.946,155.887 73.833,155.750 73.833 C 155.583 73.833,155.500 73.667,155.500 73.333 C 155.500 73.000,155.417 72.833,155.250 72.833 C 155.083 72.833,155.000 72.667,155.000 72.333 C 155.000 72.000,154.917 71.833,154.750 71.833 C 154.556 71.833,154.500 71.611,154.500 70.833 C 154.500 70.056,154.444 69.833,154.250 69.833 C 154.031 69.833,154.000 68.639,154.000 60.083 L 154.000 50.333 149.250 50.333 L 144.500 50.333 144.500 61.500 M293.167 67.250 L 293.167 84.167 297.917 84.167 L 302.667 84.167 302.667 67.250 L 302.667 50.333 297.917 50.333 L 293.167 50.333 293.167 67.250 M4.833 54.083 C 4.833 54.221,4.720 54.333,4.582 54.333 C 4.360 54.333,4.336 55.416,4.374 63.458 L 4.417 72.583 13.833 72.583 L 23.250 72.583 23.293 63.458 C 23.331 55.335,23.308 54.333,23.080 54.333 C 22.938 54.333,22.780 54.221,22.727 54.083 C 22.643 53.865,21.488 53.833,13.732 53.833 C 5.933 53.833,4.833 53.864,4.833 54.083 M26.944 53.944 C 26.883 54.006,26.833 58.243,26.833 63.361 L 26.833 72.667 36.083 72.667 L 45.333 72.667 45.333 63.500 C 45.333 55.776,45.297 54.333,45.101 54.333 C 44.973 54.333,44.826 54.221,44.773 54.083 C 44.672 53.820,27.205 53.684,26.944 53.944 M122.000 58.417 C 122.000 58.602,122.194 58.667,122.750 58.667 C 123.306 58.667,123.500 58.731,123.500 58.917 C 123.500 59.083,123.667 59.167,124.000 59.167 C 124.333 59.167,124.500 59.250,124.500 59.417 C 124.500 59.572,124.657 59.667,124.917 59.667 C 125.176 59.667,125.333 59.761,125.333 59.917 C 125.333 60.054,125.406 60.167,125.494 60.167 C 125.749 60.167,126.793 61.278,126.923 61.688 C 126.988 61.892,127.221 62.252,127.441 62.488 C 127.661 62.724,127.886 63.198,127.942 63.542 C 127.997 63.885,128.104 64.167,128.180 64.167 C 128.255 64.167,128.368 64.618,128.430 65.170 C 128.493 65.722,128.609 66.214,128.689 66.264 C 128.876 66.379,128.878 67.333,128.691 67.333 C 128.612 67.333,128.503 67.872,128.448 68.531 C 128.379 69.358,128.268 69.773,128.090 69.873 C 127.949 69.952,127.833 70.200,127.833 70.425 C 127.833 70.677,127.738 70.833,127.583 70.833 C 127.417 70.833,127.333 71.000,127.333 71.333 C 127.333 71.667,127.250 71.833,127.083 71.833 C 126.917 71.833,126.833 72.000,126.833 72.333 C 126.833 72.667,126.750 72.833,126.583 72.833 C 126.446 72.833,126.333 72.946,126.333 73.083 C 126.333 73.221,126.221 73.333,126.083 73.333 C 125.946 73.333,125.833 73.446,125.833 73.583 C 125.833 73.750,125.667 73.833,125.333 73.833 C 125.000 73.833,124.833 73.917,124.833 74.083 C 124.833 74.221,124.721 74.333,124.583 74.333 C 124.446 74.333,124.333 74.446,124.333 74.583 C 124.333 74.750,124.167 74.833,123.833 74.833 C 123.500 74.833,123.333 74.917,123.333 75.083 C 123.333 75.278,123.111 75.333,122.333 75.333 C 121.556 75.333,121.333 75.389,121.333 75.583 C 121.333 75.769,121.139 75.833,120.583 75.833 C 120.028 75.833,119.833 75.769,119.833 75.583 C 119.833 75.398,119.639 75.333,119.083 75.333 C 118.528 75.333,118.333 75.269,118.333 75.083 C 118.333 74.917,118.167 74.833,117.833 74.833 C 117.500 74.833,117.333 74.750,117.333 74.583 C 117.333 74.417,117.167 74.333,116.833 74.333 C 116.500 74.333,116.333 74.250,116.333 74.083 C 116.333 73.946,116.221 73.833,116.083 73.833 C 115.946 73.833,115.833 73.721,115.833 73.583 C 115.833 73.446,115.721 73.333,115.583 73.333 C 115.446 73.333,115.333 73.221,115.333 73.083 C 115.333 72.946,115.221 72.833,115.083 72.833 C 114.946 72.833,114.833 72.721,114.833 72.583 C 114.833 72.446,114.721 72.333,114.583 72.333 C 114.417 72.333,114.333 72.167,114.333 71.833 C 114.333 71.500,114.250 71.333,114.083 71.333 C 113.917 71.333,113.833 71.167,113.833 70.833 C 113.833 70.500,113.750 70.333,113.583 70.333 C 113.398 70.333,113.333 70.139,113.333 69.583 C 113.333 69.028,113.269 68.833,113.083 68.833 C 112.878 68.833,112.833 68.539,112.833 67.187 C 112.833 65.927,112.892 65.492,113.083 65.333 C 113.236 65.207,113.333 64.841,113.333 64.396 C 113.333 63.859,113.399 63.667,113.583 63.667 C 113.750 63.667,113.833 63.500,113.833 63.167 C 113.833 62.833,113.917 62.667,114.083 62.667 C 114.221 62.667,114.333 62.554,114.333 62.417 C 114.333 62.279,114.446 62.167,114.583 62.167 C 114.750 62.167,114.833 62.000,114.833 61.667 C 114.833 61.333,114.917 61.167,115.083 61.167 C 115.221 61.167,115.333 61.054,115.333 60.917 C 115.333 60.779,115.446 60.667,115.583 60.667 C 115.721 60.667,115.833 60.554,115.833 60.417 C 115.833 60.279,115.937 60.167,116.063 60.167 C 116.189 60.167,116.386 60.054,116.500 59.917 C 116.614 59.779,116.848 59.667,117.020 59.667 C 117.193 59.667,117.333 59.554,117.333 59.417 C 117.333 59.250,117.500 59.167,117.833 59.167 C 118.167 59.167,118.333 59.083,118.333 58.917 C 118.333 58.736,118.519 58.667,119.005 58.667 C 119.449 58.667,119.710 58.582,119.773 58.417 C 119.844 58.231,120.141 58.167,120.934 58.167 C 121.770 58.167,122.000 58.221,122.000 58.417 M232.000 58.500 C 232.000 58.685,231.889 58.833,231.750 58.833 C 231.612 58.833,231.500 58.946,231.500 59.083 C 231.500 59.221,231.387 59.333,231.250 59.333 C 231.112 59.333,231.000 59.414,231.000 59.512 C 231.000 59.610,230.887 59.803,230.750 59.940 C 230.612 60.078,230.500 60.335,230.500 60.512 C 230.500 60.689,230.387 60.833,230.250 60.833 C 230.112 60.833,230.000 60.946,230.000 61.083 C 230.000 61.221,229.887 61.333,229.750 61.333 C 229.612 61.333,229.500 61.446,229.500 61.583 C 229.500 61.721,229.434 61.833,229.354 61.833 C 229.273 61.833,229.114 62.058,229.000 62.333 C 228.886 62.608,228.727 62.833,228.646 62.833 C 228.566 62.833,228.500 62.946,228.500 63.083 C 228.500 63.221,228.387 63.333,228.250 63.333 C 228.112 63.333,228.000 63.446,228.000 63.583 C 228.000 63.721,227.934 63.833,227.854 63.833 C 227.773 63.833,227.614 64.058,227.500 64.333 C 227.386 64.608,227.227 64.833,227.146 64.833 C 227.066 64.833,227.000 64.946,227.000 65.083 C 227.000 65.221,226.887 65.333,226.750 65.333 C 226.612 65.333,226.500 65.446,226.500 65.583 C 226.500 65.721,226.434 65.833,226.354 65.833 C 226.273 65.833,226.114 66.058,226.000 66.333 C 225.886 66.608,225.727 66.833,225.646 66.833 C 225.566 66.833,225.500 66.946,225.500 67.083 C 225.500 67.221,225.387 67.333,225.250 67.333 C 225.112 67.333,225.000 67.446,225.000 67.583 C 225.000 67.721,224.934 67.833,224.854 67.833 C 224.773 67.833,224.614 68.058,224.500 68.333 C 224.386 68.608,224.227 68.833,224.146 68.833 C 224.066 68.833,224.000 68.946,224.000 69.083 C 224.000 69.221,223.887 69.333,223.750 69.333 C 223.612 69.333,223.500 69.446,223.500 69.583 C 223.500 69.721,223.387 69.833,223.250 69.833 C 223.037 69.833,223.000 69.400,223.000 66.937 C 223.000 64.566,223.045 64.003,223.250 63.833 C 223.387 63.719,223.500 63.410,223.500 63.146 C 223.500 62.831,223.586 62.667,223.750 62.667 C 223.917 62.667,224.000 62.500,224.000 62.167 C 224.000 61.833,224.083 61.667,224.250 61.667 C 224.387 61.667,224.500 61.554,224.500 61.417 C 224.500 61.279,224.612 61.167,224.750 61.167 C 224.887 61.167,225.000 61.054,225.000 60.917 C 225.000 60.779,225.112 60.667,225.250 60.667 C 225.387 60.667,225.500 60.554,225.500 60.417 C 225.500 60.279,225.612 60.167,225.750 60.167 C 225.887 60.167,226.000 60.054,226.000 59.917 C 226.000 59.779,226.103 59.667,226.230 59.667 C 226.356 59.667,226.553 59.554,226.667 59.417 C 226.781 59.279,227.006 59.167,227.167 59.167 C 227.328 59.167,227.553 59.054,227.667 58.917 C 227.799 58.757,228.168 58.667,228.687 58.667 C 229.299 58.667,229.500 58.605,229.500 58.417 C 229.500 58.217,229.750 58.167,230.750 58.167 C 231.889 58.167,232.000 58.196,232.000 58.500 M270.167 58.417 C 270.167 58.601,270.359 58.667,270.899 58.667 C 271.396 58.667,271.662 58.747,271.727 58.917 C 271.780 59.054,272.005 59.167,272.227 59.167 C 272.449 59.167,272.674 59.279,272.727 59.417 C 272.780 59.554,273.013 59.667,273.245 59.667 C 273.509 59.667,273.667 59.760,273.667 59.917 C 273.667 60.054,273.779 60.167,273.917 60.167 C 274.054 60.167,274.167 60.279,274.167 60.417 C 274.167 60.554,274.279 60.667,274.417 60.667 C 274.554 60.667,274.667 60.779,274.667 60.917 C 274.667 61.054,274.779 61.167,274.917 61.167 C 275.054 61.167,275.167 61.270,275.167 61.396 C 275.167 61.523,275.279 61.719,275.417 61.833 C 275.554 61.947,275.667 62.182,275.667 62.354 C 275.667 62.526,275.779 62.667,275.917 62.667 C 276.102 62.667,276.167 62.861,276.167 63.417 C 276.167 63.972,276.231 64.167,276.417 64.167 C 276.629 64.167,276.667 64.593,276.667 67.000 C 276.667 69.407,276.629 69.833,276.417 69.833 C 276.231 69.833,276.167 70.028,276.167 70.583 C 276.167 71.139,276.102 71.333,275.917 71.333 C 275.779 71.333,275.667 71.446,275.667 71.583 C 275.667 71.721,275.554 71.833,275.417 71.833 C 275.250 71.833,275.167 72.000,275.167 72.333 C 275.167 72.667,275.083 72.833,274.917 72.833 C 274.779 72.833,274.667 72.946,274.667 73.083 C 274.667 73.221,274.554 73.333,274.417 73.333 C 274.279 73.333,274.167 73.446,274.167 73.583 C 274.167 73.721,274.054 73.833,273.917 73.833 C 273.779 73.833,273.667 73.946,273.667 74.083 C 273.667 74.250,273.500 74.333,273.167 74.333 C 272.833 74.333,272.667 74.417,272.667 74.583 C 272.667 74.750,272.500 74.833,272.167 74.833 C 271.833 74.833,271.667 74.917,271.667 75.083 C 271.667 75.278,271.444 75.333,270.667 75.333 C 269.889 75.333,269.667 75.389,269.667 75.583 C 269.667 75.769,269.472 75.833,268.917 75.833 C 268.361 75.833,268.167 75.769,268.167 75.583 C 268.167 75.387,267.935 75.333,267.083 75.333 C 266.231 75.333,266.000 75.280,266.000 75.083 C 266.000 74.917,265.833 74.833,265.500 74.833 C 265.167 74.833,265.000 74.750,265.000 74.583 C 265.000 74.446,264.887 74.333,264.750 74.333 C 264.612 74.333,264.500 74.221,264.500 74.083 C 264.500 73.946,264.387 73.833,264.250 73.833 C 264.112 73.833,264.000 73.721,264.000 73.583 C 264.000 73.446,263.887 73.333,263.750 73.333 C 263.612 73.333,263.500 73.221,263.500 73.083 C 263.500 72.946,263.387 72.833,263.250 72.833 C 263.112 72.833,263.000 72.721,263.000 72.583 C 263.000 72.446,262.887 72.333,262.750 72.333 C 262.612 72.333,262.500 72.221,262.500 72.083 C 262.500 71.946,262.387 71.833,262.250 71.833 C 262.083 71.833,262.000 71.667,262.000 71.333 C 262.000 71.000,261.917 70.833,261.750 70.833 C 261.565 70.833,261.500 70.639,261.500 70.083 C 261.500 69.528,261.435 69.333,261.250 69.333 C 261.040 69.333,261.000 68.963,261.000 67.000 C 261.000 65.037,261.040 64.667,261.250 64.667 C 261.435 64.667,261.500 64.472,261.500 63.917 C 261.500 63.361,261.565 63.167,261.750 63.167 C 261.917 63.167,262.000 63.000,262.000 62.667 C 262.000 62.333,262.083 62.167,262.250 62.167 C 262.387 62.167,262.500 62.026,262.500 61.854 C 262.500 61.682,262.612 61.447,262.750 61.333 C 262.887 61.219,263.000 61.023,263.000 60.896 C 263.000 60.770,263.112 60.667,263.250 60.667 C 263.387 60.667,263.500 60.554,263.500 60.417 C 263.500 60.279,263.603 60.167,263.730 60.167 C 263.856 60.167,264.053 60.054,264.167 59.917 C 264.281 59.779,264.515 59.667,264.687 59.667 C 264.859 59.667,265.000 59.554,265.000 59.417 C 265.000 59.250,265.167 59.167,265.500 59.167 C 265.833 59.167,266.000 59.083,266.000 58.917 C 266.000 58.732,266.192 58.667,266.732 58.667 C 267.229 58.667,267.495 58.586,267.560 58.417 C 267.634 58.225,267.949 58.167,268.911 58.167 C 269.916 58.167,270.167 58.217,270.167 58.417 M364.000 58.500 C 364.000 58.683,363.925 58.833,363.833 58.833 C 363.742 58.833,363.667 58.946,363.667 59.083 C 363.667 59.221,363.554 59.333,363.417 59.333 C 363.279 59.333,363.167 59.446,363.167 59.583 C 363.167 59.721,363.054 59.833,362.917 59.833 C 362.779 59.833,362.667 59.914,362.667 60.012 C 362.667 60.110,362.554 60.303,362.417 60.440 C 362.279 60.578,362.167 60.835,362.167 61.012 C 362.167 61.189,362.054 61.333,361.917 61.333 C 361.779 61.333,361.667 61.446,361.667 61.583 C 361.667 61.721,361.554 61.833,361.417 61.833 C 361.279 61.833,361.167 61.914,361.167 62.012 C 361.167 62.110,361.054 62.303,360.917 62.440 C 360.779 62.578,360.667 62.835,360.667 63.012 C 360.667 63.189,360.554 63.333,360.417 63.333 C 360.279 63.333,360.167 63.446,360.167 63.583 C 360.167 63.721,360.054 63.833,359.917 63.833 C 359.779 63.833,359.667 63.914,359.667 64.012 C 359.667 64.110,359.554 64.303,359.417 64.440 C 359.279 64.578,359.167 64.835,359.167 65.012 C 359.167 65.189,359.054 65.333,358.917 65.333 C 358.779 65.333,358.667 65.446,358.667 65.583 C 358.667 65.721,358.554 65.833,358.417 65.833 C 358.279 65.833,358.167 65.914,358.167 66.012 C 358.167 66.110,358.054 66.303,357.917 66.440 C 357.779 66.578,357.667 66.835,357.667 67.012 C 357.667 67.189,357.554 67.333,357.417 67.333 C 357.279 67.333,357.167 67.446,357.167 67.583 C 357.167 67.721,357.054 67.833,356.917 67.833 C 356.779 67.833,356.667 67.938,356.667 68.066 C 356.667 68.193,356.554 68.341,356.417 68.394 C 356.279 68.446,356.167 68.679,356.167 68.911 C 356.167 69.175,356.073 69.333,355.917 69.333 C 355.779 69.333,355.667 69.446,355.667 69.583 C 355.667 69.721,355.554 69.833,355.417 69.833 C 355.233 69.833,355.167 69.641,355.167 69.104 C 355.167 68.659,355.069 68.293,354.917 68.167 C 354.739 68.019,354.667 67.628,354.667 66.813 C 354.667 65.905,354.719 65.667,354.917 65.667 C 355.111 65.667,355.167 65.444,355.167 64.667 C 355.167 63.889,355.222 63.667,355.417 63.667 C 355.583 63.667,355.667 63.500,355.667 63.167 C 355.667 62.833,355.750 62.667,355.917 62.667 C 356.083 62.667,356.167 62.500,356.167 62.167 C 356.167 61.833,356.250 61.667,356.417 61.667 C 356.554 61.667,356.667 61.554,356.667 61.417 C 356.667 61.279,356.779 61.167,356.917 61.167 C 357.054 61.167,357.167 61.054,357.167 60.917 C 357.167 60.779,357.279 60.667,357.417 60.667 C 357.554 60.667,357.667 60.554,357.667 60.417 C 357.667 60.279,357.779 60.167,357.917 60.167 C 358.054 60.167,358.167 60.054,358.167 59.917 C 358.167 59.779,358.279 59.667,358.417 59.667 C 358.554 59.667,358.667 59.554,358.667 59.417 C 358.667 59.250,358.833 59.167,359.167 59.167 C 359.500 59.167,359.667 59.083,359.667 58.917 C 359.667 58.725,359.878 58.667,360.566 58.667 C 361.211 58.667,361.491 58.596,361.560 58.417 C 361.726 57.985,364.000 58.062,364.000 58.500 M4.333 85.499 L 4.333 94.667 13.835 94.667 L 23.336 94.667 23.293 85.542 L 23.250 76.417 13.792 76.374 L 4.333 76.331 4.333 85.499 M26.833 85.500 L 26.833 94.667 36.083 94.667 L 45.333 94.667 45.333 85.500 L 45.333 76.333 36.083 76.333 L 26.833 76.333 26.833 85.500 M48.833 85.500 L 48.833 94.667 58.083 94.667 C 65.879 94.667,67.333 94.630,67.333 94.434 C 67.333 94.307,67.446 94.159,67.583 94.106 C 67.962 93.961,67.962 77.039,67.583 76.894 C 67.446 76.841,67.333 76.693,67.333 76.566 C 67.333 76.370,65.879 76.333,58.083 76.333 L 48.833 76.333 48.833 85.500 " stroke="none" fill="#0484f4" fill-rule="evenodd"></path><path id="path1" d="" stroke="none" fill="#0884f4" fill-rule="evenodd"></path><path id="path2" d="" stroke="none" fill="#0884f4" fill-rule="evenodd"></path><path id="path3" d="" stroke="none" fill="#0884f4" fill-rule="evenodd"></path><path id="path4" d="" stroke="none" fill="#0884f4" fill-rule="evenodd"></path></g></svg>